<?xml version="1.0" encoding="UTF-8"?>
<svg id="Yoonsung Kim" data-name="Yoonsung Kim" xmlns="http://www.w3.org/2000/svg" viewBox="0 0 500 500" width="800" height="800">
  <defs>
    <style>
      .cls-1 {
        fill: #322c39;
      }

      .cls-2 {
        fill: #473c38;
      }

      .cls-3 {
        fill: #fff;
      }

      .cls-4 {
        fill: #8f1f1a;
      }

      .cls-5 {
        fill: #454442;
      }

      .cls-6 {
        fill: #020000;
      }

      .cls-7 {
        fill: #c90e05;
      }

      .cls-8 {
        fill: #ffe1c9;
      }

      .cls-9 {
        fill: #4b4947;
      }

      .cls-10 {
        fill: #fda67d;
      }

      .cls-11 {
        fill: #f18c6d;
      }

      .cls-12 {
        fill: #380d0d;
      }

      .cls-13 {
        fill: #1a1919;
      }

      .cls-14 {
        fill: #ea5b29;
      }

      .cls-15 {
        fill: #4a160c;
      }

      .cls-16 {
        fill: #fdfdfe;
      }

      .cls-17 {
        fill: #e5e5e5;
      }

      .cls-18 {
        fill: #212121;
      }

      .cls-19 {
        fill: #b1110c;
      }

      .cls-20 {
        fill: #8281f6;
      }

      .cls-21 {
        fill: #462d6a;
      }

      .cls-22 {
        fill: #f4c698;
      }

      .cls-23 {
        fill: #8f1e19;
      }

      .cls-24 {
        fill: #221d1c;
      }

      .cls-25 {
        fill: #1c1919;
      }

      .cls-26 {
        fill: #e43717;
      }

      .cls-27 {
        fill: #2a2929;
      }

      .cls-28 {
        fill: #ff7345;
      }

      .cls-29 {
        fill: #232222;
      }

      .cls-30 {
        fill: #dc230c;
      }

      .cls-31 {
        fill: #a2a2a2;
      }

      .cls-32 {
        fill: #fefefe;
      }
    </style>
  </defs>
  <path id="shadow" class="cls-22" d="m52.64,460.07c.27,5.38,4.39,9.72,8.51,13.2,15.64,13.23,35.09,21.9,55.38,24.69,45.48,6.26,91.01-16.45,136.66-11.58,14.37,1.53,28.3,5.77,42.56,8.12,23.01,3.79,46.55,2.62,69.72,0,18.67-2.11,39.64-6.68,49.31-22.8,11.46-19.1-.31-45.37-19.29-57.02-18.98-11.65-42.5-12.39-64.77-11.99-56.3,1.01-112.35,7.16-168.09,14.87-23.12,3.19-52.64,3.11-73.26,13.58-8.43,4.28-37.3,17.87-36.73,28.92Z"/>
  <path id="body" class="cls-10" d="m217.27,135.46c6.83-1.93,16.19-3.77,27.34-3.65,16.96.19,30.29,4.85,38.27,8.38-.69,14.58-1.38,29.16-2.07,43.74-21.18-16.16-42.36-32.32-63.54-48.48Z"/>
  <path class="cls-12" d="m401.42,183.96c-.29-.51-6.76-.59-8.09,1.26-2.04,2.84-4.6,5.28-6.82,7.98-3.94,4.78-7.34,9.98-10.14,15.5-5.5,10.84-8.99,22.93-9.95,35.05-.24,3.02-.14,6.04.47,9.01.57,2.78.5,10.26,3.45,9.74,5.35-.94,10.49-3.22,13.49-6.13,9.45-9.16,13.87-22.05,16.9-34.54,1.83-7.56,3.14-15.27,3.65-23.04.36-5.46,1.14-12.62-2.96-14.83Z"/>
  <g>
    <g id="hand">
      <path class="cls-10" d="m451.3,83.86c2.14.76,7.93,2.79,12.7,8.3,1.38,1.59,2.7,3.12,3.6,5.56,1.17,3.19.44,4.76-.02,11.18-.2,2.83-.67,10.88-2.37,17.81-.14.56-.45,1.79-1.24,1.99-1.51.4-2.85-3.44-6.32-5.68-2.4-1.54-5-1.8-6.85-1.78-4.86-1.21-8.86-2.43-11.87-3.44-1.99-.67-3.69-1.28-4.83-2.96-1.45-2.13-1.13-4.7-.89-5.88-1.17-1.34-2.43-3.23-1.97-5.03.52-2.03,2.89-2.62,2.73-4.11-.15-1.36-2.17-1.31-3.1-3.4-.46-1.04-.64-2.58.03-3.79.92-1.67,2.67-1.24,3.28-2.73.55-1.36-.7-2.2-.15-3.85.39-1.18,1.39-1.82,2.14-2.3,1.86-1.21,3.84-1.37,5.64-1.37,5.22-.01,9.27,1.39,9.51,1.48Z"/>
      <g>
        <path class="cls-14" d="m447.07,100.57c-1.85-.47-3.72-.82-5.6-1.05-1.88-.23-3.78-.35-5.67-.33-.69,0-1.37.03-2.06.07.11.16.18.34.21.56.01.13,0,.26-.02.38.61.07,16.65,2.06,18.55,2.22-1.75-.79-3.57-1.38-5.42-1.85Z"/>
        <path class="cls-14" d="m444.07,110.14c-1.61-.49-3.24-.87-4.89-1.14-1.64-.27-3.3-.43-4.94-.48-.47-.01-.95-.01-1.42,0,.12.15.25.3.37.44-.02.11-.04.23-.06.36.37.05.74.1,1.11.15,1.62.22,3.23.46,4.84.73,1.61.27,8.06,1.52,9.7,1.81-1.52-.77-3.11-1.37-4.71-1.86Z"/>
        <path class="cls-14" d="m446.08,90.94c1.62.15,3.24.32,4.9.4-1.51-.65-3.09-1.11-4.69-1.47-1.6-.36-3.23-.62-4.87-.76-1.64-.15-3.3-.2-4.95-.14-.72.03-1.44.08-2.15.15,0,.23-.03.47-.13.73.74.07,11.9,1.09,11.9,1.09Z"/>
      </g>
      <path class="cls-10" d="m457.74,116.31c-9.58-1.02-25.08,44.93-25.08,44.93-11.74,31.01-18.08,48.38-14.42,70.59.9,5.48,5.34,30.5,17.98,33.37,7.77,1.76,18-5.56,21.6-15.21,1.25-3.35,1.43-6.14,1.46-6.88.57-14.08,9.98-113.48,5.87-121.86-.85-1.73-2.17-2.85-2.17-2.85,0,0-2.07-1.75-5.22-2.09Z"/>
      <path class="cls-14" d="m452.44,122.28c.78-.05,1.53-.06,2.28-.06h4.48c.75,0,1.5,0,2.28.04-.71.31-1.46.51-2.22.64-.76.13-1.53.2-2.3.2-.77,0-1.54-.06-2.3-.19-.76-.13-1.51-.32-2.22-.63Z"/>
      <path class="cls-10" d="m469.83,74.64s-10.83,11.27-9.26,22.51c.88,6.27,2.47,7.92,3.77,7.93.7,0,1.36-.78,2.08-1.58,1.49-1.69,2.06-3.54,2.24-4.14,1.4-4.8.12-6.99,1.22-11.55.78-3.21,1.7-3.3,3.63-9.56.94-3.05,1.14-4.38.55-4.93-1.04-.97-3.94,1.1-4.23,1.31Z"/>
    </g>
    <path class="cls-10" d="m428.29,269.4c-3.83,0-7.72-.72-11.49-2.25l-119.76-48.49c-15.69-6.35-23.26-24.22-16.9-39.91,6.35-15.69,24.22-23.26,39.91-16.9l119.76,48.49c15.69,6.35,23.26,24.22,16.9,39.91-4.83,11.92-16.3,19.15-28.42,19.15Z"/>
    <path class="cls-14" d="m387.7,189.24l-38.95-15.77-29.12,52.62s2.58,1.72,6.77,4.45l62.49,25.3c-10.25-21.86-3.29-57.29-1.19-66.61Z"/>
    <path class="cls-14" d="m414.35,200.03c-4.46,17.78,7.42,41.5,3.89,31.81-.27-.74-.49-1.54-.67-2.38-1.76-8.15.3-20.67,1.68-27.44l-4.9-1.99Z"/>
  </g>
  <path class="cls-28" d="m312.15,140.55c-3.56.64,3.64,8.43,4.06,11.31.62,4.27,1.24,8.55,1.86,12.82,1.21,8.34,2.42,16.69,3.71,25.02,2.6,16.81,6.53,26.34,10.34,42.92,1.51,6.56,2.77,16.06,28.57,27.67,9.57,4.3,11.24,1.91,11.24,1.91-2.39-12.01,14.62-84.48,30.96-76.95,3.99,1.84-53.31-39.91-90.74-44.7Z"/>
  <path class="cls-8" d="m318.07,164.68c.55,3.82,1.11,7.64,1.67,11.46,2.14.56,4.32.99,6.51,1.39,2.35.43,4.71.81,7.05,1.25,2.17.4,5.81,8.66,7.81,7.4,4.02-10,11.76-31.67,7.09-33.9-13.26-6.37-24.21-10.23-36.06-11.74-3.56.64,3.64,8.43,4.06,11.31.62,4.27,1.24,8.55,1.86,12.82Z"/>
  <path class="cls-28" d="m339.42,148.68c-41.89-14.86-89.09-19.9-133.35-15.88-15.17,1.38-40.16,6.34-49.6,20.17-4.78,7,.95,11.36.22,19.55-.7,7.81-9.75,18.06-8.6,25.82,5.78,39.07,11.14,149.01,25.06,186.24,1.89,5.07,99.54,23.77,173.02-32.57,2.16-1.66,4.88-7.82,5.07-10.54,5.52-80.27-4.11-190.05-11.83-192.79Z"/>
  <path class="cls-8" d="m148.1,198.34c2.81,18.97,5.52,54.64,9.15,90.59,5.72.46,11.48.52,17.2.32,10.42-.37,20.75-1.64,30.97-3.69,33.15-6.64,65.54-20.64,92.01-41.84,23.2-18.58,42.76-45.27,49.7-74.14-.69-13.99-5.63-20.17-7.7-20.91-41.89-14.86-89.09-19.9-133.35-15.88-15.17,1.38-40.16,6.34-49.6,20.17-4.78,7,.95,11.36.22,19.55-.7,7.81-9.75,18.06-8.6,25.82Z"/>
  <path class="cls-10" d="m306.64,148.83c.82-1.26.6-3.17-1.27-3.55-4.88-.99-9.68-2.27-14.38-3.9-3.52-1.22-9.12-2.57-11.22-6.01-1.18-1.95-.71-4.5-.5-6.64.24-2.43.5-4.85.79-7.27.58-4.85,1.29-9.68,2.08-14.51,1.48-.79,2.12-3.14.22-4.19-11.98-6.6-24.32-13.27-38.04-15.23-.3-.04-.58-.03-.84.01-1.31-.19-2.78.57-2.77,2.28.05,11.31-.42,22.88-2.33,34.05-.8,4.67-2.32,8.93-7.13,10.66-5.31,1.92-11.3,2.41-16.89,2.47-2.62.03-3.01,3.48-1.18,4.51,3.11,8.1,8.24,14.73,14.81,20.43,6.75,5.85,14.08,11.24,22.28,14.89,16.04,7.13,35.87,6.89,48.92-6.18,5.62-5.63,9.45-13.88,7.46-21.81Z"/>
  <path class="cls-8" d="m314.03,150.77c-5.01-6.47-13.7-10.89-21.74-12.11-.86-.63-5.29.69-5.29.69,4.95,5.27,5.23,14.06.25,18.18-14.73,12.2-39.15,9.47-52.65-2.98-5.65-5.21-9.34-13.76-4.37-20.72.89-1.24-1.13-2.42-2.04-1.24-.08-.02-.16-.03-.25-.04-7.7-.35-15.96-.06-22.3,4.9-5.61,4.39-7.27,11.47-5.88,18.26,1.52,7.4,6.19,14.54,10.82,20.38,5.24,6.6,12.2,10.21,19.64,13.82,7.6,3.69,15.39,7.29,23.69,9.1,8.25,1.8,16.57,1.38,24.71-.8,7.89-2.11,15.67-5.41,22.51-9.89,6.19-4.04,12.12-9.29,15.29-16.11,3.36-7.23,2.51-15.12-2.39-21.44Z"/>
  <path class="cls-12" d="m176.22,264.67c.19-.66-7.97-15.75-11.19-23.16-3.53-8.14-8.24-15.38-13.37-22.37-2.52-3.44-4.96-7.19-8.15-9.94-2.88-2.48-6.3-4.23-9.7-5.69-7.01-3.01-11.7,1.87-19.21,2.55-5.28.48-13.58,1.29-16.21,7.04-2.14,4.68-.54,9.15,2.94,14.26,4.54,6.67,10.23,12.32,15.84,17.86,6.02,5.94,12.3,11.61,19.12,16.41,7.32,5.16,15.32,9.33,23.8,11.56,3.47.91,7.54,1.92,10.9.01,2.66-1.51,4.44-5.81,5.22-8.53Z"/>
  <path class="cls-10" d="m173.91,222.64c0-.19-.06-.39-.17-.59-7.23-14.11-26.91-46.54-40-36.17-12.46,9.86-43.93,54.94-57.13,84.15-3.63,8.04-2.69,17.86,2.03,25.5,5.98,9.68,17.46,15.51,28.54,16.82,1.76.21,3.61.29,5.26-.37,5.27-2.13,6.77-15.18,9.95-19.81,4.64-6.76,49.3-64.94,51.36-67.66.48-.63.49-1.32.16-1.86Z"/>
  <path class="cls-14" d="m132.62,196.64h-9.21c-2.76,3.31-5.76,7.15-8.88,11.33,7.24,4.83,36.81,25.71,37.75,44.59,10.79-14.12,20.54-26.83,21.47-28.07.48-.63.49-1.32.16-1.86,0-.19-.06-.39-.17-.59-1.37-2.67-3.18-5.99-5.3-9.55l-6.77-5.58-29.04-10.27Z"/>
  <path class="cls-8" d="m197.99,164.74c-1-8.59,6.18-31.67,5.04-31.62-55.04,2.24-99.2,71.47-104.56,78.9-.9,1.25-.62,3.04-.15,1.99,2.17-4.81,11.33-7.36,15.99-5.95,21.28,6.4,39.64,22.19,50.15,43.57,1.04,2.12,6.81,20.48,6.95,20.48.3.15.66.19,1.07.07,3.27-.94,23.5-67.53,24.72-77.89,1.15-9.78,1.93-19.71.78-29.54Z"/>
  <path class="cls-12" d="m195.34,201.56c-1.12,10.59-3.67,21.04-6.84,31.19-3,9.62-6.59,19.18-11.36,28.08-1.87,3.49-3.92,7-6.6,9.93-.74.81.46,2.01,1.2,1.2,2.39-2.61,4.29-5.66,6.02-8.74,2.29-4.08,4.26-8.33,6.06-12.64,4.28-10.19,7.67-20.79,10.17-31.55,1.34-5.76,2.41-11.6,3.03-17.49.12-1.09-1.59-1.08-1.7,0h0Z"/>
  <path class="cls-12" d="m220.88,364.33c16.99.43,34-2.29,50-8.01,1.02-.37.58-2.01-.45-1.64-15.87,5.68-32.7,8.38-49.55,7.95-1.09-.03-1.09,1.67,0,1.7h0Z"/>
  <path class="cls-12" d="m172.32,315.78c1.55,5.8,3.19,11.51,5.66,17.01,2.41,5.39,5.43,10.49,8.95,15.23.65.87,2.12.02,1.47-.86-3.45-4.64-6.4-9.63-8.79-14.89-2.48-5.46-4.1-11.16-5.64-16.94-.28-1.06-1.92-.61-1.64.45h0Z"/>
  <path class="cls-10" d="m186.98,353.83c-1.61-2.88-21.96-27.98-26.61-33.69-9.06-11.12-24.08-26.28-30.18-39.34-3.17-6.78-25.66-58.81-39.37-37.33-6.4,10.03-15.67,26.14-17.48,38.17-1.71,11.37,2.38,21.29,9.25,30.17,7.05,9.11,15.32,17.45,23.51,25.53,8.61,8.49,17.61,16.6,26.96,24.27,9.8,8.05,32.43,24.28,32.81,24.02.38-.02.7-.27.89-.61,4.88-3.49,28.11-17.04,20.21-31.18Z"/>
  <path class="cls-10" d="m247.85,360.6c-1.26-3.08-5.49-4.99-8.1-6.71-3.75-2.47-7.91-4.31-12.38-4.96-6.03-.88-12.09-.08-18.03,1.18,6.39-3.64,13.3-6.52,20.25-4.96,4.36.98,8.29,4.83,13.03,3.55,3.95-1.07,5.4-6.09,2.9-8.99-3.22-3.74-9.17-7.06-13.83-8.46-6.14-1.84-12.6-.23-18.6,1.4-2.16.59-4.3,1.24-6.42,1.96.99-1.81,1.76-3.73,2.18-5.76.57-2.74-.19-6.21-3.64-6.18-3.61.03-7.13,3.89-9.79,5.92-4.04,3.09-8.09,6.19-12.13,9.28-11.47,8.77-34.55,18.43-37.91,33.28,3.91,4.85,8.62,9.28,13.6,13,11.5,8.58,28.55,9.62,41.28,2.6,1.48,0,2.95.13,4.42.46,5.12,1.15,10.62,6.14,15.8,2.26,4.47-3.35.94-9.26-1.97-12.4-.86-.93-1.81-1.75-2.82-2.48,1.38.22,2.75.56,4.09,1.05,4.45,1.62,12.26,7.39,16.49,2.38,3.66-4.33-2.58-9.24-6.19-11.46.57.16,1.14.33,1.71.52,3.93,1.29,8.04,3.81,12.27,2.22,2.96-1.12,4.89-5.4,3.87-8.39-.03-.1-.07-.2-.11-.29Z"/>
  <path class="cls-14" d="m229.52,364.52c-7.48-3-15.91-6.13-23.85-2.86-1,.41-.56,2.06.45,1.64,7.66-3.15,15.74-.03,22.94,2.86,1.02.41,1.46-1.24.45-1.64h0Z"/>
  <path class="cls-14" d="m216.03,373.71c-4.29-2.46-9.38-3.12-14.15-1.82-1.06.29-.61,1.93.45,1.64,4.34-1.17,8.94-.58,12.84,1.65.95.55,1.81-.92.86-1.47h0Z"/>
  <path class="cls-14" d="m177.4,344.41c1.18.98,2.27,2.04,3.29,3.19.73.82,1.93-.38,1.2-1.2-1.01-1.15-2.11-2.21-3.29-3.19-.84-.69-2.05.5-1.2,1.2h0Z"/>
  <path class="cls-14" d="m205.55,334.1c-6.17,1.77-12.05,4.43-17.44,7.92-.92.59-.06,2.07.86,1.47,5.27-3.41,11-6.02,17.03-7.75,1.05-.3.6-1.94-.45-1.64h0Z"/>
  <path class="cls-12" d="m348.76,197.71c2.14,14.85,3.2,29.85,3.15,44.85-.01,4.24-.12,8.47-.3,12.71-.05,1.09,1.65,1.09,1.7,0,.66-15.13.22-30.31-1.34-45.37-.44-4.22-.97-8.43-1.57-12.63-.16-1.08-1.79-.62-1.64.45h0Z"/>
  <path class="cls-12" d="m216.78,134.27c-3.41,8.23-1.13,17.4,3.57,24.63,4.83,7.43,11.92,12.55,20.29,15.33,9.26,3.07,19.44,3.43,29.07,2.44,9.39-.97,19.1-3.98,25.47-11.34,3.07-3.55,4.95-7.82,5.62-12.45.65-4.46.36-9.4-2.12-13.29-.59-.92-2.06-.07-1.47.86,2.11,3.31,2.45,7.44,2.03,11.26-.42,3.88-1.74,7.62-4,10.8-5.28,7.42-14.31,10.89-23.02,12.15-9.14,1.32-18.93,1.18-27.89-1.12-8.16-2.09-15.45-6.25-20.68-12.93-5.68-7.24-8.9-17.02-5.23-25.89.42-1.01-1.23-1.45-1.64-.45h0Z"/>
  <path id="neck" class="cls-10" d="m275.73,100.94s-4.18,26.12-1.79,32.78c.06.18.24.65.02,1.06-1.46,2.82-17.91-2.73-34.78-9.26,4.21-17.24,8.43-34.48,12.64-51.73,0,0,27.5,17.92,23.91,27.14Z"/>
  <path id="head" class="cls-10" d="m278.28,116.05c2.38-.31,4.25-1.3,4.25-1.3.55-.29,1.07-.63,1.58-1.04,0,0,.82-.63,1.55-1.42,9.08-9.8,5.32-31.07,5.32-31.07-1.14-6.44-2.5-8.72-5.65-17.71-2.54-7.25-5.94-18.03-8.93-31.82-.73-.15-8.21-1.55-15.82-2.88-3.2-.18-23.09-1.03-33.74,12.44-13.48,17.04-1.5,43.52,9.48,56.29,1.21,1.41,2.46,2.71,3.74,3.92,2.78,3.27,8.21,8.73,16.74,12.15,0,0,9.86,3.95,21.48,2.44Z"/>
  <path id="shadow-2" data-name="shadow" class="cls-14" d="m254.8,111.05c4.04,1.47,9.12,2.91,15.07,3.72,4.05.55,7.74.71,10.97.67-.44,3.86-1.92,5.35-2.81,5.98-4.34,3.07-13.9-.66-23.23-10.37Z"/>
  <path id="nose" class="cls-14" d="m269.45,70.07c1.03,2.08,2.09,4.02,3.33,5.83,1.23,1.8,2.61,3.46,4.13,4.96.38.38.78.74,1.17,1.1.4.35.82.69,1.28,1.12.46.42.95.92,1.31,1.61.18.34.32.71.39,1.11.07.4.07.79.02,1.17-.22,1.5-1.19,2.63-2.28,3.27-1.09.65-2.25.9-3.39,1.07.94-.68,1.91-1.3,2.61-2.06.35-.38.62-.77.8-1.2.18-.42.27-.86.25-1.24-.02-.39-.13-.68-.35-.98-.22-.3-.54-.6-.95-.91-.4-.3-.87-.66-1.34-1.04-.23-.19-.46-.39-.68-.59-.22-.2-.44-.4-.65-.61-1.69-1.69-3.1-3.66-4.09-5.81-.99-2.15-1.57-4.48-1.57-6.81Z"/>
  <path id="mouth" class="cls-15" d="m278.88,100.18c.2-.41.12-.6.08-.67-.25-.43-1.16-.17-2.86-.27-.96-.06-1.72-.2-2.56-.36-.14-.03-1.11-.21-2.04-.48-2.86-.81-4.11-2-4.31-1.77-.39.43,2.86,6.1,7.13,6.09,2.14,0,4.03-1.43,4.56-2.53Z"/>
  <g id="eyebrows">
    <path class="cls-1" d="m242.04,60.19l13.51-4s-2.34-9.85-13.51,4Z"/>
    <path class="cls-1" d="m280.52,52.55l-13.78,2.96s-2.67-9.76,13.78-2.96Z"/>
  </g>
  <g>
    <ellipse class="cls-18" cx="218.31" cy="71.48" rx="12.26" ry="17.77" transform="translate(-3.64 130.7) rotate(-33.07)"/>
    <path class="cls-18" d="m295.39,15.53c-3.2-2.67-7.53-3.6-11.3-2.74-3.51-1.36-7.51-1.57-11.09-.46-1.47.45-2.89,1.56-4.34,2.18.14-1.75-.06-3.58-.62-5.39-1.23-3.97-3.93-7.05-7.4-8.45l-.26.65c3.27,1.32,5.82,4.24,6.99,8.01.57,1.83.74,3.68.56,5.44-.34.09-.68.16-1.02.16-.11-.13-.21-.26-.32-.39-5.65-6.68-16-9.44-25.76-6.87-9.74,2.56-16.96,6.8-22.72,13.33-2.82,3.2-5.45,8.87-6.6,12.82-.35,1.19-1,3.72-1.25,6.43-.64,1.93-1.13,3.91-1.47,5.92-2.31-4.68-3.33-9.97-2.88-15.2l-.7-.06c-.49,5.61.67,11.29,3.29,16.25-3.94-3.22-9.39-4.44-14.26-3.04l.19.68c4.42-1.27,9.33-.28,13.04,2.45-5.05.12-9.17,2.63-11.27,7.12-2.76,5.89-.48,13.29,5.42,17.58,1.51,1.1,3.22,1.86,5.02,2.3.77.93,1.63,1.78,2.58,2.52,2.35,1.86,5.35,3.12,8.32,2.73,2.97-.39,5.77-2.78,5.97-5.77,1.24,6.04,3.93,11.24,7.91,15.95,1.21,1.43,4.91,2.25,6.63,1.52,1.8-.77,1.92-3.26,1.58-5.19-.7-3.86-2.08-7.57-4.08-10.91.78-.18,1.54-.44,2.25-.8,1.05-.52,2-1.21,2.8-2.07,2.18-2.33,3.08-5.74,2.48-8.85,3.28,2.55,7.79,3.49,11.81,2.41,4.31-1.16,7.93-4.6,9.3-8.84,2.83,1.25,5.9,1.46,8.94.93,3.33-.23,6.53-1.21,9.47-2.67,4.66-2.3,8.65-5.76,11.46-9.17,4.02-4.88,6.43-10.12,6.97-15.14.65-6.05-1.5-11.94-5.62-15.37Zm-93.37,55.85c-5.63-4.1-7.81-11.13-5.2-16.72,2.09-4.47,6.34-6.87,11.51-6.71.06.05.11.1.16.15-.07.59-.13,1.18-.18,1.77-3.79,3.42-5.98,8.55-5.81,13.65.11,3.5,1.34,6.95,3.39,9.78-1.38-.44-2.69-1.07-3.87-1.93Zm38.05.37c-1.31,1.4-3.06,2.33-4.93,2.72-1.37-2.16-3-4.16-4.89-5.91,5.41,1.68,9.94-.29,12.02-5.48.74,3.02-.07,6.39-2.2,8.68Zm-11.5-54.58c-7.68,4.56-13.71,11.72-17.15,19.95.21-1.06.47-2.11.76-3.11,1.12-3.88,3.7-9.43,6.45-12.55,5.66-6.42,12.77-10.59,22.37-13.12,9.41-2.48,19.37.12,24.88,6.47-1.96-.4-4.39-1.82-6.15-2.24-10.45-2.49-21.89-.89-31.14,4.61Zm71.74,13.65c-.53,4.89-2.88,9.99-6.81,14.77-4.46,5.42-9.44,8.6-14.16,10.21,1.61-.79,3.15-1.75,4.55-2.82,5.92-4.49,10.47-11.05,11.56-18.4,1.09-7.35-1.65-15.38-7.64-19.78-.8-.59-1.66-1.1-2.56-1.53,3.31-.45,6.93.49,9.69,2.78,3.94,3.29,6,8.94,5.38,14.75Z"/>
  </g>
  <g id="ear">
    <g id="_선글라스" data-name="선글라스">
      <path class="cls-25" d="m242.86,75.19l21.95-6.22c.56-.16,1.14.19,1.32.79l1.32,4.43c.72,10.56-16.38,19.04-24.05,5.87l-1.24-3.36c-.24-.64.09-1.34.69-1.52Z"/>
      <path class="cls-25" d="m272.81,66.6l15.29-4.94c.39-.13.82.26.99.86l1.19,4.45c1.1,10.49-10.62,17.93-16.81,4.48l-1.07-3.39c-.2-.65-.01-1.33.41-1.46Z"/>
      <polygon class="cls-25" points="265.28 68.88 272.81 66.6 273.53 70.35 266.55 72.56 265.28 68.88"/>
    </g>
    <circle class="cls-10" cx="230.58" cy="92.38" r="9.3" transform="translate(-5.77 168.82) rotate(-39.75)"/>
    <path class="cls-25" d="m230.31,83.09c1.56-.05,3.05.3,4.36.95l8.62-4.55-.43-4.29-14.88,8.26c.74-.21,1.52-.34,2.33-.36Z"/>
    <g>
      <path class="cls-14" d="m235.03,96.12c.16,0,.31-.1.38-.25,1.43-3.13.57-6.79-2.05-8.69-2.02-1.47-4.86-1.63-7.23-.43-.21.11-.29.36-.19.58.11.21.36.29.58.19,2.09-1.06,4.58-.92,6.34.36,2.29,1.66,3.04,4.88,1.77,7.64-.1.21,0,.47.21.57.06.03.13.04.19.04Z"/>
      <path class="cls-14" d="m226.14,90.08c.11,0,.21-.04.29-.13,1.47-1.48,3.59-2.34,5.68-2.31.24,0,.43-.19.43-.42,0-.24-.19-.43-.42-.43-2.35-.04-4.64.9-6.3,2.56-.17.17-.17.44,0,.61.09.09.2.13.31.12Z"/>
    </g>
  </g>
  <g id="hand-2" data-name="hand">
    <path class="cls-10" d="m256.84,394.02c.72-1.98,2.69-7.34,1.57-14.02-.33-1.93-.64-3.79-1.86-5.87-1.59-2.73-3.15-3.14-8.03-6.61-2.15-1.53-8.2-5.97-14.18-8.85-.49-.23-1.55-.73-2.17-.29-1.18.85.78,4.08.33,7.9-.31,2.63-1.67,4.65-2.78,5.96-2.02,4.2-3.5,7.79-4.56,10.55-.7,1.82-1.27,3.41-.74,5.22.67,2.3,2.7,3.59,3.69,4.13.27,1.64.88,3.66,2.44,4.39,1.76.83,3.59-.52,4.56.48.89.91-.35,2.34.6,4.23.47.95,1.48,1.99,2.73,2.22,1.75.33,2.47-1.18,3.9-.73,1.3.41,1.17,1.81,2.67,2.39,1.08.42,2.13.08,2.92-.17,1.97-.62,3.26-1.95,4.32-3.23,3.1-3.74,4.49-7.47,4.57-7.7Z"/>
    <g>
      <path class="cls-14" d="m242.35,387.16c-.76,1.6-1.61,3.15-2.57,4.64-.95,1.49-1.99,2.91-3.12,4.26-.41.49-.83.97-1.27,1.43-.05-.17-.14-.33-.28-.48-.09-.09-.18-.16-.28-.22.31-.48,8.38-13.16,9.4-14.62-.47,1.73-1.13,3.38-1.88,4.98Z"/>
      <path class="cls-14" d="m233.71,383.63c-.6,1.45-1.3,2.84-2.08,4.18-.78,1.34-1.64,2.62-2.58,3.83-.27.35-.55.69-.84,1.02-.04-.18-.07-.36-.1-.53-.09-.05-.19-.1-.29-.16.18-.3.37-.59.55-.89.8-1.29,1.58-2.59,2.35-3.9.76-1.31,3.68-6.68,4.45-8.03-.35,1.55-.86,3.04-1.45,4.48Z"/>
      <path class="cls-14" d="m248.67,393.57c.85-1.25,1.69-2.51,2.61-3.75-.43,1.47-1.04,2.87-1.72,4.24-.69,1.36-1.47,2.68-2.34,3.95-.87,1.27-1.81,2.48-2.84,3.63-.45.5-.91.98-1.38,1.45-.16-.14-.35-.26-.6-.34.39-.57,6.27-9.18,6.27-9.18Z"/>
    </g>
    <path class="cls-10" d="m237.38,370.18c-4.94,7.47-47.08-8.63-47.08-8.63-29.19-9.94-45.41-15.69-59.17-31.47-3.4-3.89-18.71-21.89-13.28-32.66,3.34-6.62,14.65-9.62,23.7-6.48,3.14,1.09,5.25,2.61,5.8,3.03,10.44,7.94,87.3,60.06,90.88,67.97.74,1.63.76,3.25.76,3.25,0,0,.03,2.52-1.6,4.99Z"/>
    <path class="cls-14" d="m229.96,370.44c.5-.53.95-1.06,1.4-1.6l2.65-3.21c.44-.54.9-1.07,1.32-1.66-.65.33-1.23.75-1.77,1.21-.54.47-1.05.98-1.5,1.53-.46.55-.87,1.14-1.23,1.76-.35.62-.66,1.27-.87,1.97Z"/>
    <path class="cls-10" d="m274.43,386.19s-14.5,1.09-21.63-6.69c-3.98-4.34-4.22-6.46-3.45-7.4.41-.51,1.37-.52,2.36-.55,2.09-.07,3.76.62,4.29.85,4.28,1.84,5.09,4.06,9.01,5.96,2.76,1.34,3.37.74,9,3.06,2.74,1.13,3.82,1.78,3.86,2.52.08,1.32-3.12,2.17-3.45,2.26Z"/>
    <path class="cls-14" d="m162.21,356.17c-16.4-4.68-29.98-25.28-23.81-17.93.47.56,1.01,1.11,1.61,1.65,5.75,5.2,16.79,9.37,22.89,11.4l-.68,4.87Z"/>
  </g>
  <g id="trousers">
    <path class="cls-21" d="m316.43,297.53c3.13,11.24,9.41,26.43,23.27,36.66,9.8,7.24,19.62,8.97,34.38,11.57,33.27,5.86,44.46-2.13,58.98,7.14,10.39,6.63,17.92,19.18,19.22,31.32,4.83,45.01-76.66,77.48-86.36,79.91-11.35,2.84-20.22,2.81-22.49,2.86-45.06.96-115.44,3.32-207.23,6.63-11.73-3.65-28.33-10.24-45.41-22.67-16.62-12.08-49.98-35.84-47.37-66.37,1.34-15.69,11.58-26.32,13.35-28.11,8.65-8.72,17.47-10.26,50.95-16.94,41.61-8.29,56.41-11.58,63.71-23.94,2.88-4.87,3.72-9.68,4.01-12.65,12.5-2.65,25.98-4.91,40.38-6.5,38.3-4.24,72.43-2.61,100.59,1.09Z"/>
    <path class="cls-1" d="m56.01,419.14c13.23,16.14,31.89,29.71,34.79,31.82,17.08,12.42,33.68,19.02,45.41,22.67,91.8-3.3,162.18-5.67,207.23-6.63,2.27-.05,11.14-.02,22.49-2.86,28.25-7.06,75.55-38.38,85.33-65.03-95.99,17.51-316.61,19.8-395.26,20.04Z"/>
    <path class="cls-1" d="m384.09,380.47c-11.29,8.04-24.25,16.31-38.92,24.2-26.32,14.16-51.11,23.31-72.09,29.35-10.99,9.8-21.99,19.61-32.98,29.41-87.87-36.51-106.87-48.88-106.29-53.03.1-.72,1.8-8.32-.74-9.54-3.19-1.52-6.46-3.09-9.72-4.88-.35-.19-.7-.38-1.04-.58,26.68-12.26,71.33-28.82,128.94-32.2,58.18-3.41,104.84,8.07,132.85,17.26Z"/>
  </g>
  <path class="cls-31" d="m153.63,396.84l191.59-3.03c6.34-.1,11.4-5.32,11.3-11.66-.1-6.34-5.32-11.4-11.66-11.3l-191.59,3.03c-6.34.1-11.4,5.32-11.3,11.66.1,6.34,5.32,11.4,11.66,11.3Z"/>
  <path class="cls-18" d="m189.79,394.94l113.49-1.79c3.65-.06,6.56-3.06,6.5-6.71l-.1-6.22c-.06-3.65-3.06-6.56-6.71-6.5l-113.49,1.79c-3.65.06-6.56,3.06-6.5,6.71l.1,6.22c.06,3.65,3.06,6.56,6.71,6.5Z"/>
  <path class="cls-17" d="m150.55,390.34l197.55-2.79c4.76-.07,8.6-3.52,8.69-7.8l2.33-120.06c.09-4.47-3.95-8.11-8.92-8.03l-204.58,3.23c-4.93.08-8.84,3.79-8.67,8.22l4.71,119.62c.17,4.3,4.12,7.68,8.9,7.61Z"/>
  <g>
    <path class="cls-31" d="m358.45,293.93l.36-33.11c.02-1.02.04-1.98-.21-2.92-.24-.93-.67-1.81-1.25-2.58-.58-.77-1.32-1.42-2.13-1.93-.82-.51-1.72-.9-2.66-1.11-.24-.05-.47-.11-.71-.14l-.72-.08c-.48-.02-.96-.03-1.47-.02,0,0-204.36,3.58-204.59,3.6-.93.05-1.84.27-2.7.62-.86.35-1.65.85-2.34,1.45-1.38,1.21-2.34,2.93-2.39,4.75,0,.23-.01.45-.01.69l4.01,119.57s-5.4-120.07-5.39-120.34c.04-1.1.36-2.18.85-3.16.49-.98,1.18-1.85,1.99-2.58.81-.72,1.74-1.31,2.74-1.72,1-.41,2.06-.66,3.14-.74.26-.02.55-.04.79-.04,0,0,204.92-2.87,205.44-2.84l.77.1c.26.04.51.11.76.16,1.01.24,1.98.67,2.85,1.24.87.56,1.66,1.28,2.28,2.12.62.84,1.08,1.8,1.31,2.82.08.25.09.51.14.77.05.26.05.52.06.78l-.94,34.61Z"/>
    <path class="cls-20" d="m183.26,389.94l145.29-2.19-145.29,2.19Z"/>
  </g>
  <g id="leg">
    <g id="legs_and_socks" data-name="legs and socks">
      <path class="cls-11" d="m114.37,382.97c11.83-3.82,29.66-7.49,48.73-1.86,8.65,2.56,9.74,4.72,30.85,16.05,31.43,16.87,28.39,11.74,50.81,24.51,0,0,20.4,11.62,39.46,16.51,2.12.54,3.87.93,6.31,1.05,10.64.56,12.68-4,22.16-1.75,8.67,2.06,34.94,28.12,45.63,30.94,12.39,5.36,18.92,5.4,24.92,11.53,17.13,28.78-56.62-1.27-60.56-.89-20.29-5.07-38.48-9.49-54.29-11.91-28.98-3.45-89.69-22.8-108.13-30.33-8.92-3.88-35.89-12.28-41.15-15.91-5.26-3.63-22.2-24.42-4.74-37.94Z"/>
      <g id="sock">
        <path class="cls-3" d="m358.32,468.42c-7.15-3.09-12.57-7.17-23.41-15.34-13.67-10.29-14.87-13.75-22.22-15.6-9.45-2.38-11.52,2.31-22.16,1.75-8.46-.45-12.39-3.68-21.33-9.97,1.25,6.35,4.26,25.34-1.47,37.79.23.03.46.07.68.1,15.81,2.42,34,6.84,54.29,11.91,9.03,2.26,32.35,10.4,48.69,13.16,16.34,2.76,17.01-7.01,11.86-12.27-6-6.13-12.54-6.17-24.92-11.53Z"/>
        <path class="cls-14" d="m367.2,491.43c1.43.29,2.83.56,4.17.79,16.34,2.76,17.01-7.01,11.86-12.27-2.91-2.98-5.95-4.51-9.73-5.92,1.21,4.64.72,10.95-6.31,17.4Z"/>
        <path class="cls-14" d="m312.68,437.48c-7.53-1.9-10.38.69-16.6,1.54,8.38,5.06,22.43,12.04,34.21,10.49-9.46-7.56-11.18-10.41-17.61-12.02Z"/>
      </g>
    </g>
    <path class="cls-21" d="m255.27,421.43s12,26.39-8.62,42.93l-12.82-4.16s-117.32-1.68-178.26-52.98c0,0-18.14-30.35,1.19-50.74,19.33-20.4,164.53,46.16,175.95,57.1,11.41,10.94,22.55,7.85,22.55,7.85Z"/>
  </g>
  <g id="lrg">
    <path class="cls-11" d="m435.72,358.88c-5.66-6.62-19.93-1.27-39.01,2.34-14.51,2.74-23.46,10.64-69.3,29.93-9.66,4.06-74.44,35.94-77.66,37.29-12.24,5.15-25,7.83-25,7.83-4.54,1.15-8.84,2.1-13.71,3.06-16.67,3.26-22.02,3.05-38.91,5.59,0,0-28.46,4.28-44.72,14.19-1.94,1.18-4.39,3.01-6.54,5.87-1.21,1.62-3.83,5.11-3.98,9.34-.25,7.4,7.21,12.67,8.32,13.45,4.24,2.99,10.47,5.02,25.79,2.59,14.56-2.31,22.59-6.3,38.83-12.05,1.21-.43,9.85-5.67,28.74-9.01,6.32-1.12,68.45-18.78,74.77-19.9,73.13-12.93,94.23-12.93,116.02-29.55,23.5-17.92,34.79-51.12,26.36-60.97Z"/>
    <path id="leg-2" data-name="leg" class="cls-21" d="m240.68,422.9s-11.13,27.2,9.79,43.67l12.58-4.51c19.11-.75,41.29-3.17,65.49-8.78,50.44-11.68,89.23-32.48,115.22-49.56,2.54-3.93,8.85-14.88,6.24-27.63-2.39-11.69-11.23-19.74-16.94-23.17-27.37-16.49-68.9,21.11-170.26,61.5-9.68,3.86-17.56,6.8-22.13,8.49Z"/>
    <g id="sock-2" data-name="sock">
      <path class="cls-3" d="m235.15,466.29c-9.98-10.79-8.02-23.45-5.51-30.83-4.6,1.12-8.99,2.05-13.95,2.99-17.5,3.3-23.11,3.06-40.84,5.62,0,0-29.87,4.31-46.92,14.4-2.03,1.2-4.61,3.06-6.85,5.98-1.27,1.65-4.01,5.21-4.16,9.54-.25,7.56,7.6,12.96,8.76,13.76,4.46,3.07,11,5.15,27.08,2.7,15.28-2.33,23.7-6.39,40.74-12.23,1.27-.44,10.33-5.77,30.15-9.14,1.45-.25,5.69-1.29,11.5-2.79Z"/>
      <path class="cls-14" d="m132.32,456.12c-1.53.74-3,1.52-4.39,2.34-2.03,1.2-4.61,3.06-6.85,5.98-1.27,1.65-4.01,5.21-4.16,9.54-.25,7.56,7.6,12.96,8.76,13.76,4.01,2.76,9.72,4.72,22.55,3.3-20.94-9.76-20.22-24.38-15.92-34.93Z"/>
    </g>
  </g>
  <g>
    <path class="cls-20" d="m250.66,419.63c-.19,0-.37-.12-.45-.31-.09-.25.03-.52.28-.62,4.06-1.55,8.14-3.14,12.14-4.74,36.74-14.64,65.61-28.91,88.81-40.37,19.43-9.6,34.77-17.19,47.5-21.43.25-.08.52.05.6.3.08.25-.05.52-.3.6-12.67,4.22-27.99,11.79-47.38,21.38-23.21,11.47-52.1,25.75-88.88,40.4-4,1.59-8.09,3.19-12.15,4.74-.06.02-.11.03-.17.03Z"/>
    <path class="cls-20" d="m366.22,364.45c-.1,0-.19-.03-.28-.09-.22-.15-.27-.45-.11-.67l9.44-13.29c.15-.22.45-.27.67-.11.22.15.27.45.11.67l-9.44,13.29c-.09.13-.24.2-.39.2Z"/>
    <path class="cls-20" d="m135.75,364.87c-.12,0-.25-.05-.34-.14l-13.4-13.7c-.18-.19-.18-.49,0-.68.19-.18.49-.18.68,0l13.4,13.7c.18.19.18.49,0,.68-.09.09-.21.14-.33.14Z"/>
    <path class="cls-20" d="m256.86,446.51c-.07,0-.14-.01-.21-.05-4.9-2.34-7.53-7.85-7.61-15.94-.06-6.02,1.33-11.44,1.34-11.49.07-.26.33-.41.58-.34.26.07.41.33.34.58-.05.21-5.31,21.04,5.75,26.33.24.11.34.4.23.64-.08.17-.25.27-.43.27Z"/>
    <path class="cls-20" d="m232.72,414.05c-.12,0-.24-.04-.33-.13-7.3-6.99-69.11-36.62-117.98-51.83-.25-.08-.39-.35-.31-.6.08-.25.35-.39.6-.31,48.98,15.24,111.01,45.01,118.36,52.06.19.18.2.49.01.68-.09.1-.22.15-.35.15Z"/>
  </g>
  <g>
    <path class="cls-26" d="m231,292.72s.1.07.14.11c.22.17.43.33.65.5.07.05.13.09.2.14.23.17.46.35.69.52,0,0,0,0,0,0,.02.02.05.04.07.06.05.04.1.08.16.12.21.15.41.31.62.46,0,0,0,0,0,0,.02.02.05.04.07.06.05.04.1.08.16.12.12.09.23.19.36.26.09.04.2.04.3.06.27-.08.53-.17.8-.25.05-.06.13-.12.15-.19.2-.54.38-1.08.57-1.63.26-.73.52-1.47.77-2.2.08-.15.14-.3.23-.44.25-.4.61-.6,1.09-.58.34-.02.59.16.85.35.09.1.19.2.28.3.23.25.45.51.68.76,0,0,0,0,0,0,.09.11.18.22.27.33.04.05.08.1.13.15.43.48.88.93,1.27,1.43.24.3.49.4.85.32.16-.02.32-.03.48-.05.02-.01.04-.03.06-.04,0,0,0,0,0,0,.13-.2.25-.39.38-.59.02-.03.04-.07.06-.1.07-.12.14-.25.21-.37.03-.05.06-.11.1-.16.1-.16.19-.32.29-.48.02-.03.04-.07.07-.1.06-.11.12-.22.18-.33,0,0,0,0,0,0,.01-.02.03-.04.04-.06.02-.04.04-.07.07-.11.18-.3.36-.6.54-.9.03-.05.07-.11.1-.16.04-.07.08-.14.12-.21,0,0,0,0,0,0,.01-.02.03-.04.04-.07.04-.07.08-.14.12-.21.19-.16.39-.32.58-.48.05-.02.11-.04.16-.06.2,0,.39,0,.59-.01.04,0,.09.01.13.02.2.14.4.28.6.42.03.03.05.07.08.1.14.23.28.47.41.7.07.12.15.25.22.37.35.59.7,1.18,1.05,1.77.06.1.12.21.18.31.09.14.17.29.26.43.02.04.04.07.06.11.09.24.29.21.48.2.06.01.12.02.18.04.37.11.66,0,.84-.35.47-.52.94-1.03,1.41-1.55.15-.18.31-.36.46-.54.39-.37.78-.75,1.18-1.12.76-.21,1.51.16,1.75.84.17.5.32,1.01.49,1.5.17.48.37.95.55,1.43.13.36.24.72.36,1.08.01.02.03.04.04.07h0s0,0,0,0c.04.03.08.05.12.08.05.02.11.03.16.05.02,0,.04,0,.05,0,.01.01.03.01.05,0,.04.01.08.03.11.04.28.13.54.21.81-.03.19-.17.42-.32.63-.47.03-.02.05-.04.08-.06.26-.2.52-.39.78-.59.02-.02.05-.04.07-.05.21-.15.41-.3.62-.45.01-.01.03-.03.04-.04.04-.03.08-.06.12-.09.03-.02.05-.04.08-.05.31-.23.59-.51.92-.68.56-.3.84-.23,1.37.13.45.31.48.78.56,1.25.11.61.21,1.21.32,1.82.07.42.15.84.21,1.26.03.21.05.42.05.64,0,.23.14.35.32.44.16.08.31.17.47.25,0,0,0,.01,0,.01h.01s.06.02.08.04c0,0,0,.01,0,.01h.01c.06,0,.12,0,.17.01.04-.02.08-.05.12-.07,1.02-.48,2.03-.95,3.05-1.44.39-.19.77-.36,1.22-.39.55-.03,1.06.49,1.15.88.07.32.05.67.06,1,0,.13-.04.26-.04.39-.02.55-.03,1.09-.04,1.64,0,.02,0,.03,0,.05,0,.05,0,.11,0,.16-.01.02-.01.03,0,.05-.02.4-.04.79-.08,1.19-.03.28.05.51.27.67.23.16.33.5.69.45.04,0,.09,0,.13-.01,1.33-.33,2.67-.66,4-1,.7-.18,1.49.53,1.46,1.15-.02.48-.13.95-.23,1.42-.23,1.06-.49,2.12-.71,3.18-.03.13.02.3.1.41.14.21.32.4.49.59.05.03.1.07.16.1.32,0,.64,0,.96,0,.02-.01.04-.03.06-.04.05,0,.1-.01.15-.02.02,0,.03,0,.05,0,.31-.02.61-.06.92-.06.33,0,.66.03,1,.02.21,0,.43-.05.64-.1.4-.1,1.16.17,1.43.5.39.47.37.99.15,1.51-.54,1.26-1.12,2.5-1.64,3.77-.07.17.06.42.11.63,0,.02.05.04.05.06.12.52.55.56.96.63.57.1,1.14.21,1.71.31.58.1,1.17.17,1.75.28.96.19,1.3,1.07,1.04,1.83-.1.3-.32.56-.51.83-.58.83-1.16,1.67-1.74,2.49-.11.16-.03.25.08.32.36.22.73.43,1.09.65.21.13.41.27.61.4.93.64,1.71,1.44,2.33,2.35.39.57.63,1.26.87,1.92.36.95.33,1.96.27,2.95-.06,1.04-.32,2.06-.75,3-.57,1.23-1.2,2.43-1.87,3.6-.94,1.65-1.91,3.29-2.93,4.89-1.01,1.58-2.06,3.13-3.16,4.65-.56.78-1.27,1.45-1.91,2.17-.02.02-.04.04-.06.05-.51.36-.83.18-.88-.5-.03-.45-.08-.9-.05-1.35.04-.68.13-1.36.2-2.04.07-.63.14-1.25.22-1.88.07-.49.16-.98.23-1.48.04-.28.08-.57.13-.85,0-.02,0-.04,0-.05l.17-.96s.01-.07.02-.1c.03-.16.06-.33.09-.49,0,0,.01-.02.01-.02,0,0,0-.02,0-.02.01-.06.03-.12.04-.18,0-.02,0-.04,0-.05.09-.5.18-1,.27-1.49.02-.01.02-.03,0-.04.03-.18.07-.36.1-.55,0-.05,0-.11,0-.16.11-.47.22-.95.32-1.42.35-1.65.69-3.31,1.04-4.96.08-.37-.34-.83-.72-.74-.32.08-.63.18-.93.31-1.37.6-2.72,1.23-4.09,1.8-.43.18-.66.36-.74.85-.13.79-.39,1.56-.59,2.34-.21.5-.43,1-.64,1.49-.49,1.12-1.15,2.14-1.94,3.08-.77.93-1.68,1.7-2.67,2.38-.38.26-.82.46-1.24.67-.2.1-.32.19-.21.44.06.13.05.3.06.45.1,1.7-.31,3.26-1.19,4.72-.68,1.13-1.56,2.07-2.59,2.88-.4.31-.85.56-1.31.79-.6.31-1.23.58-1.85.86-.65.3-1.36.41-2.05.57-.78.19-1.57.22-2.36.17-.62-.04-1.23-.17-1.84-.26-.05,0-.1-.07-.15-.1,1.94-1.9,3.62-3.99,5.16-6.3-.18,0-.31-.01-.44,0-.68.08-1.35.18-2.03.26-.56.07-1.13.12-1.69.17-.89.08-1.78.17-2.68.22-.84.05-1.68.04-2.52.06-.41.01-.81.05-1.25.07-.03-.18-.05-.34-.08-.5-.01-.07-.03-.14-.04-.22.01-.32.03-.64.04-.96,0-.05,0-.11,0-.16.16-1.27.6-2.43,1.28-3.51,1.01-1.6,2.4-2.79,4.06-3.68.2-.11.39-.25.59-.38.39-.14.78-.29,1.17-.42.82-.28,1.67-.46,2.53-.56.79-.09,1.57-.11,2.36,0,.49.07.98.16,1.46.24.05.05.09.14.15.15.91.19,1.71.63,2.47,1.15.07.05.21.08.29.05,1.16-.45,2.19-1.09,3.03-2.02.07-.08.11-.19.17-.29.65-.76,1.09-1.63,1.43-2.59-.09,0-.12,0-.14,0-1.52.39-3.03.83-4.56,1.17-1.82.4-3.66.74-5.51,1.03-1.5.24-3.02.39-4.54.54-1.03.1-2.07.16-3.1.22-.92.05-1.85.1-2.77.1-1.31,0-2.61-.03-3.92-.05-.45,0-.91-.03-1.36-.05-1.06-.07-2.12-.14-3.18-.21-.5-.03-.99-.06-1.48-.11-.98-.11-1.97-.23-2.95-.36-1.07-.14-2.14-.28-3.21-.45-1.11-.18-2.22-.38-3.32-.61-1.71-.36-3.41-.74-5.11-1.12-.06-.01-.13,0-.2-.01,0,.07,0,.15.03.22.38.96.86,1.86,1.58,2.61.04.07.08.15.13.21,1.07,1.05,2.35,1.73,3.81,2.07.11.03.27-.01.36-.08.65-.47,1.32-.9,2.07-1.18.05-.02.09-.09.13-.14.12-.03.24-.04.36-.08.87-.3,1.76-.49,2.68-.51.66-.02,1.32-.03,1.97.06.85.12,1.69.31,2.51.54.59.16,1.16.44,1.73.67.37.24.74.49,1.1.73,1.69,1.12,3,2.57,3.8,4.45.49,1.15.61,2.36.55,3.59,0,.17-.05.33-.29.21-.06-.03-.14-.01-.21-.01-1.18-.04-2.35-.06-3.53-.11-.75-.03-1.49-.09-2.23-.16-.69-.06-1.37-.15-2.06-.21-.46-.04-.92-.07-1.38-.11-.21-.02-.41-.08-.61-.1-.09,0-.18.05-.27.08.03.08.05.17.09.24.28.45.55.9.84,1.33.45.65.9,1.31,1.38,1.94.5.65,1.03,1.28,1.56,1.9.32.37.67.72,1.07,1.14-.21.05-.36.08-.51.11-.83.18-1.68.32-2.53.29-.59-.02-1.18-.11-1.76-.22-.56-.1-1.13-.2-1.66-.4-.82-.31-1.64-.66-2.41-1.07-1.02-.54-1.89-1.28-2.67-2.13-.69-.75-1.25-1.6-1.64-2.55-.23-.55-.4-1.13-.56-1.71-.18-.7-.19-1.41-.11-2.13,0-.08-.06-.22-.13-.24-1.38-.48-2.57-1.28-3.72-2.15-.88-.66-1.56-1.51-2.17-2.42-.24-.36-.45-.73-.67-1.09-.07-.12-.14-.24-.21-.36-.07-.13-.14-.25-.22-.38-.17-.39-.38-.76-.51-1.16-.31-.98-.57-1.97-.87-2.95-.04-.13-.17-.28-.29-.33-1.1-.39-2.22-.74-3.33-1.12-.86-.3-1.71-.64-2.56-.97-.15-.06-.31-.13-.41.02-.07.1-.06.26-.06.39,0,.07.05.13.07.2.48,1.33.97,2.67,1.45,4,.03.09.06.18.09.28.07.18.15.36.22.55,0,0,0,.02,0,.02h.01s.01.06.02.08c.01.02.02.04.03.06.04.14.08.28.13.42.01.03.03.07.04.1,0,0,0,0,0,0,.02.05.03.11.05.16.12.29.24.58.34.87.04.12.02.26.06.38.12.35.27.69.38,1.05.17.57.32,1.15.49,1.72.14.51.29,1.02.44,1.52.14.51.28,1.02.43,1.53.11.4.26.78.35,1.18.12.51.19,1.03.29,1.55.13.68.19,1.36.16,2.04,0,.1-.02.19-.05.28-.1.31-.29.41-.55.24-.53-.35-1.08-.67-1.54-1.1-.98-.91-1.92-1.85-2.83-2.83-1.01-1.09-1.97-2.21-2.93-3.35-.89-1.06-1.75-2.15-2.61-3.24-.66-.83-1.32-1.66-1.93-2.53-.36-.51-.62-1.09-.91-1.64-.41-.77-.66-1.61-.85-2.45-.11-.47-.15-.96-.16-1.45,0-.5,0-1.01.12-1.49.14-.57.38-1.13.64-1.66.26-.52.57-1.03.91-1.5.51-.69,1.11-1.31,1.82-1.8.49-.34.97-.68,1.46-1.01.14-.09.32-.13.47-.19.08-.04.16-.08.24-.13-.81-1.17-1.61-2.31-2.39-3.47-.53-.78-.34-1.58.37-1.99.33-.19.75-.21,1.14-.28,1.05-.19,2.1-.38,3.15-.54.39-.06.47-.36.64-.62.23-.35.15-.66-.02-1.01-.32-.66-.57-1.34-.86-2.02-.2-.46-.38-.93-.61-1.38-.26-.51-.24-.99.07-1.44.29-.43.72-.56,1.22-.53.5.02,1.01.03,1.51.04.03,0,.07,0,.1,0,.21.02.43.04.64.06.24,0,.48-.03.72.02.7.13,1.34.15,1.71-.61.06-.13.15-.29.13-.43-.05-.36-.16-.72-.25-1.08h0s0-.02,0-.02c-.05-.23-.1-.47-.15-.7-.02-.11-.05-.21-.07-.32-.04-.2-.08-.4-.12-.6-.02-.09-.05-.17-.07-.26-.06-.29-.13-.57-.19-.86-.02-.07-.03-.14-.05-.2l-.03-.8s.03-.1.05-.14c.07-.11.14-.23.21-.34.11-.09.21-.18.32-.27.02-.01.04-.03.07-.04.02,0,.03,0,.04-.02.02-.01.04-.02.05-.03.05-.02.11-.04.16-.06h.03s.03,0,.03,0h.05c.23,0,.46,0,.69.01.09.02.17.05.26.07.25.06.5.12.76.18.02,0,.04,0,.05,0,.39.1.78.19,1.17.29l.28.07c.09.02.18.04.27.06.05.02.11.03.16.05.04,0,.07,0,.11.01.1.03.21.05.31.08.07.02.15.04.22.06.18.04.35.19.54.02.23-.18.45-.37.68-.55.44-.04.5-.1.49-.54,0-.43-.03-.86-.05-1.3-.01-.24-.21-.43-.46-.46l-.02-.59c-.01-.09-.03-.18-.04-.27v-.91c.04-.37.08-.74.13-1.11,0-.02.02-.04.03-.07.02-.03.04-.07.06-.1.02-.03.04-.07.06-.1.11-.1.21-.19.32-.29.01-.01.03-.02.04-.03.04-.02.07-.04.11-.06.14-.04.28-.07.43-.11.05,0,.11,0,.16,0,.05.02.11.03.16.05.23.09.46.17.69.28.66.3,1.32.62,1.98.93.18.08.36.17.54.25.09.04.18.08.27.12.11.05.21.1.32.16.04.02.07.03.11.05.11.05.22.09.33.14.3-.16.6-.33.89-.5.04-.02.07-.08.07-.13.08-.53.15-1.07.22-1.61,0,0,0-.02,0-.02.06-.46.13-.91.19-1.37,0-.02.01-.03.01-.05.07-.34.16-.67.2-1.01.06-.58.31-1.01.82-1.29.04-.01.07-.02.11-.04.02,0,.03-.01.05-.02.12,0,.25,0,.37,0,.37-.03.62.21.91.39Zm3.9,25.93c-.61.4-.93,1-1.11,1.68-.04.14.03.3.04.46-.17.45-.36.9-.52,1.36-.41,1.21-.64,2.44-.38,3.71.26,1.29.93,2.34,1.97,3.16.69.54,1.47.91,2.27,1.21.41.15.85.36,1.32.26.66-.14,1.33-.24,1.97-.46,1.9-.66,2.92-2.08,3.28-3.99.14-.75.12-1.53.12-2.3,0-.46-.05-.94-.17-1.39-.16-.57-.37-1.13-.63-1.66-.45-.91-1.11-1.64-2.03-2.12-.67-.35-1.37-.55-2.11-.59-.89-.05-1.77-.02-2.62.26-.06-.04-.12-.11-.17-.11-.47.02-.89.18-1.22.52Zm20.29-.54c-.85-.12-1.52.37-1.91,1.11-.18.19-.39.35-.52.56-.31.51-.61,1.02-.85,1.56-.52,1.16-.78,2.36-.65,3.64.12,1.18.5,2.24,1.24,3.18.42.53.83,1.08,1.41,1.44,1.09.67,2.27.7,3.47.39.87-.23,1.68-.62,2.46-1.07.92-.53,1.54-1.28,1.87-2.27.31-.93.31-1.9.18-2.86-.14-1.06-.45-2.08-.86-3.07-.14-.34-.26-.72-.5-.99-1.45-1.63-3.15-2.23-5.32-1.62Z"/>
    <path class="cls-23" d="m241.3,337.71c-.58-.23-1.14-.5-1.73-.67-.82-.23-1.66-.42-2.51-.54-.65-.09-1.31-.08-1.97-.06-.92.02-1.81.21-2.68.51-.12.04-.24.06-.36.08-.22-.02-.44-.04-.65-.07-.74-.09-1.48-.19-2.22-.29-.55-.07-1.1-.13-1.65-.21-.66-.1-1.32-.21-1.98-.31-.72-.75-1.21-1.65-1.58-2.61-.03-.07-.02-.14-.03-.22.07,0,.14,0,.2.01,1.7.37,3.41.76,5.11,1.12,1.1.23,2.21.43,3.32.61,1.07.17,2.14.31,3.21.45.98.13,1.97.25,2.95.36.49.06.99.08,1.48.11,1.06.07,2.12.14,3.18.21.45.03.9.05,1.36.05,1.31.02,2.61.05,3.92.05.92,0,1.85-.05,2.77-.1,1.04-.06,2.07-.11,3.1-.22,1.51-.15,3.03-.3,4.54-.54,1.84-.29,3.68-.64,5.51-1.03,1.53-.33,3.04-.77,4.56-1.17.02,0,.05,0,.14,0-.33.96-.78,1.83-1.43,2.59-.12,0-.23-.02-.35,0-.79.14-1.58.31-2.38.44-.63.11-1.27.2-1.9.3-.49.07-.98.15-1.48.22-.49-.08-.97-.17-1.46-.24-.78-.11-1.57-.09-2.36,0-.87.1-1.71.28-2.53.56-.39.13-.78.28-1.17.42-.55.03-1.09.07-1.64.1-.45.02-.9.05-1.35.05-1.33.02-2.66.04-3.99.06-.54,0-1.08.05-1.62.04-1.19,0-2.38-.03-3.57-.05-.26,0-.51-.04-.76-.06Z"/>
    <path class="cls-4" d="m273.8,334.35c.2-.78.46-1.55.59-2.34.08-.49.31-.68.74-.85,1.38-.57,2.73-1.21,4.09-1.8.3-.13.62-.23.93-.31.38-.09.8.37.72.74-.35,1.65-.69,3.31-1.04,4.96-.1.48-.21.95-.32,1.42-.03.03-.07.06-.1.09-.19.22-.38.44-.58.65-1.01,1.07-2,2.16-3.05,3.19-.57.56-1.25,1.03-1.88,1.53-.05.04-.11.05-.17.08-.3.13-.45.04-.47-.29,0-.19,0-.37,0-.56.01-.09.03-.18.04-.27.06-.29.11-.58.18-.86.12-.55.24-1.09.37-1.64.04-.17.11-.34.17-.51.01-.03.02-.05.03-.08.03-.1.05-.19.08-.29.01-.03.02-.06.03-.09.06-.27.1-.55.18-.81.12-.37.28-.74.41-1.11.13-.35.25-.71.39-1.06.06-.16.02-.18-.13-.14-.4.12-.81.23-1.21.34Z"/>
    <path class="cls-4" d="m213.64,334.24c-.48-1.33-.97-2.67-1.45-4-.02-.07-.07-.13-.07-.2,0-.13,0-.29.06-.39.1-.14.25-.08.41-.02.85.33,1.7.67,2.56.97,1.1.39,2.22.74,3.33,1.12.12.04.25.2.29.33.3.98.56,1.97.87,2.95.13.4.34.78.51,1.16-.13.21.04.36.11.54.04.12.08.24.11.37,0,.02,0,.04.01.05.01.02.02.05.03.07.12.45.26.89.35,1.34.11.54.18,1.09.24,1.64.04.34.04.69.06,1.03.01.25-.08.42-.33.49-.22-.16-.46-.29-.65-.47-.64-.58-1.27-1.17-1.88-1.77-.38-.37-.72-.77-1.07-1.17-.53-.61-1.05-1.23-1.57-1.84-.4-.47-.8-.93-1.19-1.4-.09-.11-.17-.22-.25-.33-.02-.03-.04-.07-.06-.1-.04-.06-.08-.11-.12-.17-.1-.07-.2-.15-.3-.22Z"/>
    <path class="cls-26" d="m221.53,302.32v-1.49c-.01-.27-.02-.53-.03-.8.25.03.45.22.46.46.02.43.05.86.05,1.3,0,.44-.05.49-.49.54Z"/>
    <path class="cls-6" d="m236.3,318.24c.86-.28,1.74-.31,2.62-.26.75.04,1.45.24,2.11.59.92.48,1.57,1.22,2.03,2.12.26.53.48,1.09.63,1.66.12.45.17.92.17,1.39,0,.77.02,1.55-.12,2.3-.36,1.91-1.39,3.34-3.28,3.99-.63.22-1.31.32-1.97.46-.47.1-.9-.11-1.32-.26-.81-.3-1.59-.66-2.27-1.21-1.04-.82-1.71-1.87-1.97-3.16-.26-1.26-.03-2.5.38-3.71.16-.46.34-.91.52-1.36,0,0,.02,0,.02,0,0,0,.02,0,.02,0,0,.31.02.62,0,.93-.02.69.19,1.31.55,1.88.3.46.7.85,1.22,1.02.61.2,1.2.05,1.71-.36.79-.63,1.05-1.51,1.16-2.46.07-.6-.05-1.19-.25-1.75-.25-.7-.64-1.28-1.36-1.58-.2-.08-.41-.13-.62-.2,0-.01,0-.02,0-.04Zm2.18,5.16c-.11.13-.21.25-.32.38.03.02.07.04.1.07.08-.14.15-.29.23-.43.03-.02.05-.05.08-.07,0,0-.01-.01-.02-.02-.02.03-.05.05-.07.08Zm.34-2.88v1.93h.07c-.05-.65.28-1.29-.07-1.93Zm-3.34,4.39v.07c.51.1,1.01.17,1.5-.07h-1.5Zm1.6-.08s.06.06.08.09c.34-.32.67-.63,1.01-.95-.02-.03-.05-.05-.08-.08-.34.31-.68.63-1.02.94Zm.35-6.51c.19.21.43.46.69.74-.23-.31-.41-.61-.69-.74Zm1.01,1.1s-.05.04-.08.05c.05.1.11.2.16.3.03-.01.05-.03.08-.04l-.16-.31Zm-.17-.08s.03-.03.04-.04c-.05-.05-.09-.1-.14-.16l-.06.06c.05.05.11.09.16.14Z"/>
    <path class="cls-6" d="m255.19,318.12c2.16-.61,3.87-.01,5.32,1.62.24.27.36.65.5.99.41.99.72,2.01.86,3.07.13.96.13,1.93-.18,2.86-.33.99-.95,1.74-1.87,2.27-.78.45-1.59.85-2.46,1.07-1.19.31-2.38.28-3.47-.39-.59-.36-1-.9-1.41-1.44-.74-.93-1.12-2-1.24-3.18-.13-1.28.14-2.49.65-3.64.24-.54.54-1.05.85-1.56.13-.21.35-.38.52-.56.05,0,.1-.01.15-.02-.56.84-.8,1.75-.62,2.76.15.81.46,1.52,1.11,2.07.62.53,1.3.56,1.92.22.98-.54,1.38-1.46,1.45-2.53.04-.56-.04-1.11-.19-1.66-.26-.96-1.09-1.7-2.06-1.74.05-.07.11-.14.16-.21Zm-.94,6.58c.37.29,1.41.25,1.54,0h-1.54Zm-1.81-2.47v-1.47s-.05,0-.07,0c-.19.47-.09.94.07,1.46Zm5.17-.11c.1-.51.23-1.02,0-1.55v1.55Z"/>
    <path class="cls-30" d="m233.88,320.79h-.02s-.02,0-.02,0c-.02-.15-.08-.32-.04-.46.18-.68.5-1.28,1.11-1.68,0,.06,0,.11,0,.17-.04.05-.08.09-.12.14-.47.53-.77,1.14-.9,1.84Z"/>
    <path class="cls-7" d="m255.19,318.12c-.05.07-.11.14-.16.21-.5-.05-.91.13-1.24.5-.12.13-.24.25-.36.38-.05,0-.1.01-.15.02.39-.75,1.06-1.23,1.91-1.11Z"/>
    <path class="cls-19" d="m234.9,318.82c0-.06,0-.11,0-.17.34-.34.75-.51,1.22-.52.06,0,.11.07.17.11,0,.01,0,.02,0,.04-.54,0-.99.21-1.4.54Z"/>
    <path class="cls-32" d="m234.9,318.82c.41-.33.86-.55,1.4-.54.21.07.42.12.62.2.72.29,1.11.88,1.36,1.58.2.56.32,1.15.25,1.75-.11.95-.37,1.83-1.16,2.46-.51.41-1.1.56-1.71.36-.52-.17-.92-.56-1.22-1.02-.37-.57-.58-1.19-.55-1.88.01-.31,0-.62,0-.93.13-.7.44-1.3.9-1.84.04-.05.08-.09.12-.14Z"/>
    <path class="cls-5" d="m238.82,320.52c.35.64.02,1.29.07,1.93h-.07v-1.93Z"/>
    <path class="cls-27" d="m235.48,324.91h1.5c-.49.24-1,.17-1.5.07v-.07Z"/>
    <path class="cls-29" d="m237.08,324.83c.34-.31.68-.63,1.02-.94.03.03.05.05.08.08-.34.32-.67.63-1.01.95-.03-.03-.06-.06-.08-.09Z"/>
    <path class="cls-24" d="m237.43,318.32c.27.13.46.43.69.74-.26-.28-.49-.53-.69-.74Z"/>
    <path class="cls-29" d="m238.48,323.41c-.08.14-.15.29-.23.43-.03-.02-.07-.04-.1-.07.11-.13.21-.25.32-.38,0,0,0,0,0,0Z"/>
    <path class="cls-24" d="m238.44,319.42l.16.31s-.05.03-.08.04c-.05-.1-.11-.2-.16-.3.03-.02.05-.04.08-.05Z"/>
    <path class="cls-24" d="m238.27,319.34c-.05-.05-.11-.09-.16-.14l.06-.06c.05.05.09.1.14.16-.01.01-.03.03-.04.04Z"/>
    <path class="cls-29" d="m238.47,323.4s.05-.05.07-.08c0,0,.01.01.02.02-.03.02-.05.05-.08.07,0,0,0,0,0,0Z"/>
    <path class="cls-16" d="m253.42,319.21c.12-.13.24-.25.36-.38.33-.37.74-.55,1.24-.5.97.04,1.8.78,2.06,1.74.15.55.23,1.1.19,1.66-.07,1.07-.47,2-1.45,2.53-.62.34-1.3.31-1.92-.22-.64-.55-.96-1.26-1.11-2.07-.18-1.01.06-1.92.62-2.76Z"/>
    <path class="cls-13" d="m254.25,324.7h1.54c-.13.25-1.17.29-1.54,0Z"/>
    <path class="cls-2" d="m252.45,322.23c-.16-.52-.26-.99-.07-1.46.02,0,.05,0,.07,0v1.47Z"/>
    <path class="cls-9" d="m257.61,322.12v-1.55c.23.53.1,1.04,0,1.55Z"/>
  </g>
</svg>