<?xml version="1.0" encoding="UTF-8"?>
<svg id="Yoonsung Kim" data-name="Yoonsung Kim" xmlns="http://www.w3.org/2000/svg" xmlns:xlink="http://www.w3.org/1999/xlink" viewBox="0 0 496.19 323.42">
  <defs>
    <style>
      .cls-1 {
        fill: #473c38;
      }

      .cls-2 {
        fill: #fff;
      }

      .cls-3 {
        fill: #8f1f1a;
      }

      .cls-4 {
        fill: #454442;
      }

      .cls-5 {
        fill: #020000;
      }

      .cls-6 {
        fill: #8953ed;
      }

      .cls-7 {
        fill: #c90e05;
      }

      .cls-8 {
        fill: #4b4947;
      }

      .cls-9 {
        fill: #ffc83d;
      }

      .cls-10 {
        fill: #229e62;
      }

      .cls-11 {
        fill: #fa8776;
      }

      .cls-12 {
        fill: #1a1919;
      }

      .cls-13 {
        fill: #2f1e45;
      }

      .cls-14 {
        fill: #fdfdfe;
      }

      .cls-15 {
        fill: #b1110c;
      }

      .cls-16 {
        fill: #8f1e19;
      }

      .cls-17, .cls-18, .cls-19 {
        fill: none;
      }

      .cls-20 {
        fill: #221d1c;
      }

      .cls-21 {
        fill: #e43717;
      }

      .cls-22 {
        fill: #2a2929;
      }

      .cls-18 {
        clip-path: url(#clippath);
      }

      .cls-23 {
        fill: #232222;
      }

      .cls-24 {
        fill: #ffe0c9;
      }

      .cls-25 {
        fill: #476dff;
      }

      .cls-26 {
        fill: #9a8bad;
      }

      .cls-19 {
        clip-path: url(#clippath-1);
      }

      .cls-27 {
        fill: #ff5252;
      }

      .cls-28 {
        fill: #dc230c;
      }

      .cls-29 {
        fill: #fefefe;
      }
    </style>
    <clipPath id="clippath">
      <circle class="cls-17" cx="325.79" cy="88.45" r="64.85" transform="translate(32.88 256.28) rotate(-45)"/>
    </clipPath>
    <clipPath id="clippath-1">
      <circle class="cls-17" cx="170.04" cy="88.45" r="64.85" transform="translate(-12.74 146.14) rotate(-45)"/>
    </clipPath>
  </defs>
  <g>
    <path class="cls-13" d="m276.08,200.98c-2.94-1.5-7.31-2.48-12.39-3.06.1-2.55-.27-4.97-2-5.17-4.65-.53-20.41-1.16-26.49-.43-3.37.4-4.1,3.28-4.09,5.76-4.39.4-8.28.91-11.25,1.45,0,0-23.41,99.57-.27,106.2,23.14,6.64,56.5,2.95,62.21.92,5.72-2.03,5.46-99.96-5.72-105.68Z"/>
    <path class="cls-11" d="m267.63,158.41c-.37-1.56-.88-3.09-1.56-4.55-11.2-23.88-43.33-10.41-42.19,13.52.34,7.2,2.49,13.95,5.4,20.55,1.69,3.82,3.69,7.73,6.5,10.87,4.43,4.95,11.06,6.73,17.42,4.87,3.54-1.04,6.31-3.71,8.27-6.75,5.15-8.01,6.55-18.47,6.96-27.78.16-3.58.03-7.25-.79-10.72Z"/>
    <path class="cls-13" d="m257.33,168.83c-.66-.42-1.47-.45-2.2-.23-.96-.34-1.96.6-2.93.92-1.97.64-4.22,3.99-1.28,5.57.88.47,2.32.13,3.25-.23,1.66-.65,3.17-1.7,3.95-3.48.42-.95.08-2-.79-2.55Z"/>
    <path class="cls-13" d="m238.21,171.38c.78,1.78,2.29,2.83,3.95,3.48.93.36,2.37.7,3.25.23,2.94-1.58.69-4.93-1.28-5.57-.97-.31-1.97-1.25-2.93-.92-.73-.23-1.54-.19-2.2.23-.87.55-1.21,1.6-.79,2.55Z"/>
    <path class="cls-13" d="m264.2,151.28c-.59-2.74-2.26-5.16-4.16-7.17-1.93-2.04-4.27-3.7-6.83-4.86-2.58-1.17-5.39-1.81-8.22-1.84-2.91-.03-5.84.57-8.51,1.73-2.67,1.15-5.12,2.87-7.04,5.05-.99,1.13-1.84,2.41-2.35,3.83-.48,1.33-.65,2.76-.46,4.16.37,2.72,1.94,5.26,4.18,6.83,1.62,1.14,3.54,1.79,5.5,1.99,1.88,1.76,3.92,3.34,6.1,4.73,1.37.87,3.42,2.22,4.91.82.74-.7.98-1.82.82-2.84,1.3.57,2.69.87,4.18.67,1.55-.21,2.98-1.05,3.82-2.38.72-1.13.91-2.52.34-3.74,1.59.36,3.22.38,4.79-.31,1.23-.54,2.23-1.52,2.72-2.78.48-1.24.47-2.61.19-3.89Z"/>
    <path class="cls-6" d="m244.63,174.09h0s-.04-.18-.04-.18c-.01-.05-.02-.1-.04-.15l-14.37-57.53-54.75,42.59,52.53,26.6.07-.05c1.74,1.2,3.84,1.9,6.1,1.9,5.95,0,10.77-4.82,10.77-10.77,0-.83-.1-1.64-.28-2.42Z"/>
    <path class="cls-13" d="m242.33,167.58c.83,3.52-.11,7.4-2.35,10.23-1.14,1.44-2.6,2.59-4.28,3.35-1.74.78-3.68,1.1-5.58,1.01-2.15-.1-4.25-.77-6.04-1.97-.44-.3-.86.42-.42.72,3.39,2.27,7.9,2.71,11.71,1.27,3.71-1.4,6.47-4.57,7.57-8.36.61-2.09.7-4.34.2-6.46-.12-.52-.92-.3-.8.22h0Z"/>
    <path class="cls-24" d="m228.44,229.33c-1.07-5.37-2.92-10.58-5.48-15.43-2.21-4.19-4.96-8.51-9.12-11.01-2.18-1.31-4.64-1.89-7.18-1.79-2.87.11-5.66.96-8.39,1.8-10.53,3.24-7.16-1.49-17.08,3.31-3.79,1.84-18.23-17.57-19.71-20.94,0,0-2.78,1.82-6.09,3.9-3.36,2.11-6.68,4.27-9.96,6.48-.2.14-.4.27-.6.41-13.4-7.72-32.79-4.7-46.75,1.37-25.31,10.99-71.98,34.72-87.95,53.87-11.49,13.78-13.68,34.07-4.12,49.1,8.31,13.06,24.73,20.83,39.15,22.43,19.54,2.17,40.13-2.02,59.24-6.84,23.59-5.95,45.71-16.72,66.57-29.04,5.39-3.19,10.72-6.49,15.99-9.87,6.8-4.36,13.61-8.73,20.32-13.24,7.46-5.01,17.67-9.46,20.94-18.53,1.84-5.1,1.27-10.78.23-15.98Z"/>
    <path class="cls-25" d="m205.1,203.39c-.42-1.2,1.61-1.94,4.42-2.63,10.02-2.47,19.27-4.14,21.8,7.29,6.31,28.48,10.73,59.65,9.72,88.83-.11,3.13.22,11.97-4.36,13.05-4.98,1.17-19.53-.81-26.44-1.92s-16.66-2.93-19.5-6.05.55-21.01,2.13-28.54c1.58-7.52,24.59-34.21,12.24-70.03Z"/>
    <path class="cls-13" d="m220.38,199.18c.79,3.59,1.98,7.08,3.53,10.41,1.54,3.32,3.45,6.48,5.67,9.39,1.26,1.65,2.62,3.22,4.07,4.7.37.38.96-.21.59-.59-2.53-2.58-4.78-5.43-6.69-8.5-1.91-3.07-3.49-6.34-4.7-9.75-.68-1.92-1.24-3.89-1.68-5.88-.11-.52-.91-.3-.8.22h0Z"/>
    <path class="cls-13" d="m229.45,287.68c-3.76-.11-7.52-.39-11.25-.86-3.71-.46-7.41-1.1-11.06-1.92-2.06-.46-4.12-.98-6.15-1.55-.52-.14-.73.66-.22.8,3.64,1.02,7.33,1.86,11.05,2.53,3.72.67,7.48,1.16,11.25,1.47,2.12.18,4.25.29,6.38.35.53.02.53-.81,0-.83h0Z"/>
    <path class="cls-13" d="m229.6,259.05c-5.5.08-11.01-.46-16.39-1.61-1.52-.33-3.04-.7-4.54-1.12-.51-.14-.73.66-.22.8,5.37,1.51,10.9,2.41,16.47,2.68,1.56.08,3.12.1,4.67.08.53,0,.53-.84,0-.83h0Z"/>
    <path class="cls-13" d="m231.17,229.05c-4.41.21-8.84-.06-13.18-.83-1.23-.22-2.45-.48-3.67-.77-.52-.13-.74.67-.22.8,4.34,1.05,8.8,1.62,13.27,1.69,1.27.02,2.53,0,3.8-.06.53-.03.53-.86,0-.83h0Z"/>
    <path class="cls-13" d="m195.85,225.23c-3.57,3.78-7.29,7.42-11.07,10.99-4.38,4.14-8.86,8.18-13.4,12.16-4.75,4.16-9.56,8.24-14.45,12.23-4.7,3.85-9.46,7.62-14.31,11.29-4.25,3.21-8.56,6.35-12.99,9.31-.48.32-.95.64-1.43.95-.44.29-.03,1.01.42.72,4.36-2.86,8.6-5.9,12.77-9.03,4.84-3.62,9.6-7.36,14.3-11.17,4.91-3.99,9.76-8.06,14.54-12.21,4.6-4,9.14-8.06,13.59-12.23,3.89-3.64,7.73-7.35,11.42-11.19.4-.41.79-.83,1.19-1.24.37-.39-.22-.98-.59-.59h0Z"/>
    <path class="cls-13" d="m144.43,196.17c1.36,3.62,2.95,7.15,4.76,10.56,1.74,3.26,3.69,6.41,5.84,9.43,2.13,2.99,4.45,5.84,6.92,8.55,2.51,2.75,5.19,5.36,7.98,7.83,2.88,2.55,5.89,4.96,8.98,7.26.39.29.78.58,1.18.87.18.13.46.03.57-.15.12-.21.03-.44-.15-.57-3.1-2.26-6.13-4.64-9.03-7.15-2.79-2.41-5.46-4.96-7.99-7.64-2.49-2.65-4.84-5.44-6.99-8.37-2.16-2.94-4.14-6.02-5.91-9.21-1.83-3.31-3.45-6.74-4.84-10.25-.18-.45-.35-.91-.53-1.36-.08-.21-.28-.35-.51-.29-.2.06-.37.3-.29.51h0Z"/>
    <path class="cls-11" d="m236.9,168.06c-.04-.44-.13-.89-.27-1.31-.29-.88-.81-1.67-1.58-2.18-3.58-2.34-9.27,2.41-12.37,4.03-7.58,3.96-16.39,3.82-24.32.79-9.05-3.46-16.49-10.29-22.25-18.08-6.17,5.4-9.16,16.83-1.61,25.2-6.25,4.23-9.67,6.3-15.92,10.53,1.22,1.97,2.56,3.89,3.93,5.75,3.77,5.12,7.7,10.2,12,14.89,6.32,6.89,13.54,13.1,21.63,17.84,1.59-1.48,3.16-2.99,4.7-4.53,4.7-4.68,9.15-9.61,13.34-14.75,4.77-5.85,9.48-12.28,13.59-18.81,3.53-5.61,9.73-12.24,9.12-19.38Z"/>
    <path class="cls-6" d="m243.67,95.78h0s0-.02,0-.02c-.11-.56-.24-1.11-.36-1.67l-4.18-19.12c-6.29-32.42-34.83-56.89-69.08-56.89-38.87,0-70.38,31.51-70.38,70.38,0,22.36,10.43,42.28,26.68,55.17h0s15.87,13.05,15.87,13.05c.07.06.14.12.21.18l.24.2h0c10.79,8.77,24.55,14.03,39.54,14.03,34.64,0,62.73-28.08,62.73-62.73,0-4.31-.43-8.51-1.26-12.57Z"/>
    <circle class="cls-13" cx="170.04" cy="88.45" r="64.85" transform="translate(-12.74 146.14) rotate(-45)"/>
    <path class="cls-6" d="m320.4,158.83l-54.75-42.59-14.24,57.09h0c-.31,1.01-.48,2.07-.48,3.18,0,5.95,4.82,10.77,10.77,10.77,2.27,0,4.37-.7,6.11-1.9l.07.05,52.53-26.6Z"/>
    <path class="cls-13" d="m252.69,167.36c-.9,3.81.11,7.91,2.52,10.97,2.5,3.19,6.48,4.85,10.5,4.66,2.29-.11,4.55-.8,6.46-2.08.44-.3.03-1.01-.42-.72-3.2,2.14-7.39,2.55-10.99,1.21-3.47-1.29-6.04-4.29-7.07-7.81-.57-1.95-.66-4.04-.2-6.02.12-.52-.68-.74-.8-.22h0Z"/>
    <path class="cls-24" d="m268.15,245.31c3.27,9.07,13.48,13.52,20.94,18.53,6.71,4.51,13.52,8.88,20.32,13.24,5.27,3.38,10.59,6.68,15.99,9.87,20.87,12.32,43.21,22.25,66.57,29.04,25.78,7.5,57.78,8.06,82.32-2.9,24.43-10.92,28.46-41.98,11.94-61.79-15.97-19.15-70.45-44.26-93.69-53.02-20.19-7.61-31.66-8.85-41.03-2.22-.2-.14-.4-.27-.6-.41-3.28-2.22-6.61-4.38-9.96-6.48-3.31-2.08-6.09-3.9-6.09-3.9-1.48,3.36-7.6,4.76-9.3,8.02-2.47,4.72-6.59,14.75-10.38,12.92-9.92-4.8-6.54-.07-17.08-3.31-2.73-.84-5.52-1.69-8.39-1.8-2.54-.1-5,.48-7.18,1.79-4.16,2.5-6.9,6.81-9.12,11.01-2.56,4.84-4.4,10.06-5.48,15.43-1.04,5.2-1.61,10.88.23,15.98Z"/>
    <path class="cls-25" d="m305.26,273.47c-1.58-7.52-24.44-33.78-12.08-69.6.42-1.2-1.61-1.94-4.42-2.63-2.81-.69-11.96-2.15-15.21-1.56-4.77.87-8.07,3.65-9.08,12.93-2.18,19.94-.39,33.88,1.5,59.36.74,9.96,2.16,24.32,5.21,32.48,2.28,6.08,7.59,5.6,13.42,4.78,5.18-.73,9.32-1.43,12.41-2.14,3.42-.79,8.93-2.04,10.75-5.03,1.73-2.85-.91-21.06-2.49-28.59Z"/>
    <path class="cls-13" d="m276.04,199.79c-1.05,3.24-2.3,6.41-3.76,9.48-1.45,3.07-3.1,6.04-4.92,8.9-1.03,1.62-2.13,3.2-3.27,4.74-.13.18-.03.46.15.57.21.12.43.03.57-.15,2.04-2.75,3.91-5.62,5.59-8.61,1.68-2.99,3.17-6.08,4.46-9.26.73-1.79,1.39-3.61,1.99-5.45.17-.51-.64-.73-.8-.22h0Z"/>
    <path class="cls-13" d="m272.21,288.99c3.78-.11,7.55-.39,11.3-.86,3.76-.47,7.49-1.11,11.18-1.93,2.08-.46,4.15-.98,6.2-1.56.51-.14.3-.94-.22-.8-3.62,1.01-7.3,1.86-11,2.52-3.68.66-7.4,1.15-11.13,1.45-2.11.17-4.22.29-6.33.35-.53.02-.53.84,0,.83h0Z"/>
    <path class="cls-13" d="m270.45,260.35c5.57.08,11.16-.47,16.61-1.64,1.52-.33,3.04-.7,4.54-1.12.51-.14.3-.94-.22-.8-5.3,1.49-10.76,2.38-16.25,2.65-1.56.08-3.12.1-4.67.08-.53,0-.53.82,0,.83h0Z"/>
    <path class="cls-13" d="m268.88,230.36c4.47.21,8.95-.08,13.35-.85,1.25-.22,2.49-.48,3.72-.78.52-.13.3-.93-.22-.8-4.29,1.04-8.69,1.6-13.1,1.66-1.25.02-2.5,0-3.75-.06-.53-.03-.53.8,0,.83h0Z"/>
    <path class="cls-13" d="m299.9,225.82c3.58,3.79,7.31,7.44,11.11,11.02,4.4,4.15,8.89,8.21,13.44,12.19,4.76,4.17,9.59,8.26,14.49,12.26,4.72,3.86,9.5,7.64,14.36,11.32,4.25,3.21,8.56,6.35,12.99,9.31.48.32.95.64,1.43.95.45.29.86-.42.42-.72-4.35-2.85-8.57-5.89-12.74-9-4.83-3.61-9.57-7.33-14.25-11.13-4.9-3.98-9.73-8.04-14.5-12.18-4.59-3.99-9.12-8.04-13.56-12.19-3.89-3.64-7.73-7.35-11.42-11.19-.4-.41-.79-.83-1.19-1.24-.37-.39-.95.2-.59.59h0Z"/>
    <path class="cls-13" d="m351.1,195.95c-1.35,3.57-2.92,7.06-4.72,10.43-1.72,3.23-3.65,6.34-5.78,9.32-2.11,2.96-4.41,5.79-6.87,8.47-2.48,2.71-5.11,5.28-7.86,7.72-2.85,2.53-5.82,4.91-8.88,7.18-.39.29-.78.58-1.18.87-.18.13-.27.36-.15.57.1.18.39.28.57.15,3.14-2.29,6.2-4.69,9.14-7.23,2.82-2.44,5.52-5.01,8.07-7.72,2.51-2.68,4.87-5.5,7.05-8.45,2.2-2.98,4.2-6.1,5.99-9.34,1.85-3.35,3.48-6.82,4.88-10.38.18-.45.35-.91.53-1.36.08-.21-.09-.45-.29-.51-.23-.06-.43.08-.51.29h0Z"/>
    <path class="cls-11" d="m259.44,168.06c.04-.44.13-.89.27-1.31.29-.88.81-1.67,1.58-2.18,3.58-2.34,9.27,2.41,12.37,4.03,7.58,3.96,16.39,3.82,24.32.79,9.05-3.46,16.49-10.29,22.25-18.08,6.17,5.4,9.16,16.83,1.61,25.2,6.25,4.23,9.67,6.3,15.92,10.53-1.22,1.97-2.56,3.89-3.93,5.75-3.77,5.12-7.7,10.2-12,14.89-6.32,6.89-13.54,13.1-21.63,17.84-1.59-1.48-3.16-2.99-4.7-4.53-4.7-4.68-9.15-9.61-13.34-14.75-4.77-5.85-9.48-12.28-13.59-18.81-3.53-5.61-9.73-12.24-9.12-19.38Z"/>
    <path class="cls-6" d="m396.17,88.45c0-38.87-31.51-70.38-70.38-70.38-34.26,0-62.79,24.48-69.08,56.9l-4.18,19.12c-.13.55-.25,1.11-.36,1.67v.02s0,0,0,0c-.83,4.06-1.26,8.27-1.26,12.57,0,34.64,28.08,62.73,62.73,62.73,14.99,0,28.75-5.26,39.54-14.03h0s.24-.19.24-.19c.07-.06.14-.12.21-.18l15.87-13.05h0c16.26-12.89,26.68-32.81,26.68-55.17Z"/>
    <circle class="cls-13" cx="325.79" cy="88.45" r="64.85" transform="translate(32.88 256.28) rotate(-45)"/>
    <path class="cls-6" d="m262.79,123.9l4.73-5.83s-7.47-14.29-19.18-14.29c-9.17,0-13.46,3.51-16.77,12.97-1.43,4.07-.15,8.06.84,10.24-.29.7-.57,1.44-.84,2.22-.93,2.66-.71,5.28-.17,7.39-1.74,5.87,1.92,11.42,1.92,11.42h.36c3.09-5.79,7.3-8.05,14.67-8.05,5.04,0,9.28,2.64,12.49,5.65l6.68-8.23s-.86-1.65-2.46-3.83l2.46-3.03s-1.69-3.24-4.73-6.63Z"/>
    <path class="cls-13" d="m246.89,188.2c1.3.03,2.87-.4,3.49-1.66.39-.79.31-1.66.14-2.5-.18-.89-.41-1.77-.67-2.64-.3-1-.66-1.98-1.07-2.94-.09-.21-.27-.35-.51-.29-.19.05-.38.3-.29.51.64,1.52,1.16,3.09,1.54,4.69.17.73.42,1.54.28,2.3-.11.58-.47,1.02-.99,1.3-.59.32-1.27.42-1.93.4-.53-.01-.53.82,0,.83h0Z"/>
    <path class="cls-13" d="m242.13,192.2c1.94,1.63,4.63,2.22,7.07,1.51.51-.15.29-.95-.22-.8-2.14.62-4.55.14-6.26-1.3-.41-.34-1,.24-.59.59h0Z"/>
    <path class="cls-13" d="m197.92,169.58c3.07-.91,6.08-1.99,9.03-3.25,2.76-1.18,5.46-2.52,8.05-4.04,2.47-1.45,4.85-3.05,7.11-4.81,2.17-1.69,4.22-3.53,6.14-5.5,1.88-1.94,3.61-4.01,5.2-6.19,1.57-2.16,2.99-4.43,4.24-6.79,1.27-2.39,2.37-4.86,3.3-7.39.95-2.58,1.74-5.22,2.36-7.9.64-2.77,1.11-5.59,1.42-8.42.33-2.93.48-5.88.49-8.83,0-.75,0-1.49-.02-2.24-.01-.53-.84-.53-.83,0,.07,2.95-.01,5.91-.25,8.85-.23,2.82-.62,5.62-1.17,8.39-.54,2.69-1.23,5.35-2.1,7.95-.84,2.53-1.84,5.01-3.02,7.41-1.16,2.38-2.48,4.68-3.96,6.87-1.48,2.19-3.11,4.28-4.88,6.25-1.82,2.02-3.79,3.9-5.87,5.65-2.14,1.79-4.41,3.42-6.77,4.91-2.49,1.56-5.08,2.95-7.74,4.19-2.82,1.31-5.72,2.43-8.68,3.4-.75.25-1.51.48-2.26.71-.51.15-.29.95.22.8h0Z"/>
    <path class="cls-13" d="m298.23,168.78c-3.03-.9-6.01-1.96-8.91-3.2-2.73-1.17-5.4-2.5-7.97-4-2.43-1.42-4.78-3-7-4.73-2.15-1.68-4.18-3.5-6.07-5.45-1.85-1.91-3.56-3.94-5.12-6.09-1.55-2.14-2.95-4.39-4.19-6.73-1.25-2.36-2.34-4.8-3.26-7.31-.94-2.56-1.71-5.17-2.32-7.83-.63-2.73-1.09-5.5-1.4-8.28-.32-2.9-.47-5.83-.48-8.75,0-.73,0-1.46.02-2.19.01-.53-.82-.53-.83,0-.07,2.98.01,5.96.26,8.93.24,2.86.63,5.71,1.19,8.53.54,2.71,1.25,5.4,2.12,8.02.86,2.57,1.88,5.09,3.07,7.53,1.17,2.4,2.51,4.72,4,6.94,1.5,2.23,3.17,4.35,4.97,6.35,1.83,2.03,3.81,3.92,5.9,5.67,2.17,1.82,4.47,3.48,6.87,4.99,2.51,1.58,5.12,2.98,7.81,4.23,2.86,1.32,5.8,2.47,8.79,3.45.77.25,1.54.49,2.31.72.51.15.73-.65.22-.8h0Z"/>
    <path class="cls-13" d="m285.39,172.81c4,.78,7.63,3.18,9.96,6.52.66.95,1.23,1.97,1.66,3.05.08.21.28.35.51.29.2-.05.37-.3.29-.51-1.61-4.01-4.81-7.31-8.76-9.06-1.1-.49-2.25-.86-3.44-1.09-.52-.1-.74.7-.22.8h0Z"/>
    <path class="cls-13" d="m195.5,182.44c1.4-2.26,3.24-4.26,5.37-5.84,2.16-1.6,4.6-2.82,7.18-3.55,1.45-.41,2.93-.66,4.43-.75.53-.03.53-.86,0-.83-2.8.16-5.53.87-8.07,2.05-2.51,1.16-4.81,2.8-6.74,4.78-1.09,1.13-2.07,2.38-2.89,3.71-.28.46.44.87.72.42h0Z"/>
    <g class="cls-18">
      <g>
        <rect class="cls-2" x="133.56" y="61.77" width="227.17" height="52.26" rx="13" ry="13"/>
        <rect class="cls-2" x="140.8" y="69.01" width="37.79" height="37.79" rx="10.72" ry="10.72"/>
        <path class="cls-13" d="m315.15,79.6h34.15c.53,0,.53-.83,0-.83h-34.15c-.53,0-.53.83,0,.83h0Z"/>
        <path class="cls-13" d="m191.77,79.6h88.28c.53,0,.53-.83,0-.83h-88.28c-.53,0-.53.83,0,.83h0Z"/>
        <path class="cls-13" d="m191.77,88.87h157.53c.53,0,.53-.83,0-.83h-157.53c-.53,0-.53.83,0,.83h0Z"/>
        <path class="cls-13" d="m191.77,98.13h130.42c.53,0,.53-.83,0-.83h-130.42c-.53,0-.53.83,0,.83h0Z"/>
        <circle class="cls-9" cx="349.53" cy="69.51" r="3.04" transform="translate(201.57 393.72) rotate(-76.72)"/>
        <circle class="cls-21" cx="337.91" cy="69.51" r="3.04" transform="translate(192.62 382.41) rotate(-76.72)"/>
      </g>
      <g>
        <rect class="cls-2" x="133.56" width="227.17" height="52.26" rx="13" ry="13"/>
        <rect class="cls-2" x="140.8" y="7.24" width="37.79" height="37.79" rx="10.72" ry="10.72"/>
        <path class="cls-13" d="m191.77,17.84h157.53c.53,0,.53-.83,0-.83h-157.53c-.53,0-.53.83,0,.83h0Z"/>
        <path class="cls-13" d="m191.77,27.1h157.53c.53,0,.53-.83,0-.83h-157.53c-.53,0-.53.83,0,.83h0Z"/>
        <path class="cls-13" d="m191.77,36.36h130.42c.53,0,.53-.83,0-.83h-130.42c-.53,0-.53.83,0,.83h0Z"/>
        <circle class="cls-10" cx="349.53" cy="7.74" r="3.04"/>
        <circle class="cls-10" cx="337.91" cy="7.74" r="3.04"/>
      </g>
      <g>
        <rect class="cls-2" x="133.56" y="123.31" width="227.17" height="52.26" rx="13" ry="13"/>
        <rect class="cls-2" x="140.8" y="130.55" width="37.79" height="37.79" rx="10.72" ry="10.72"/>
        <path class="cls-13" d="m191.77,141.14h157.53c.53,0,.53-.83,0-.83h-157.53c-.53,0-.53.83,0,.83h0Z"/>
        <path class="cls-13" d="m191.77,150.41h157.53c.53,0,.53-.83,0-.83h-157.53c-.53,0-.53.83,0,.83h0Z"/>
        <path class="cls-13" d="m191.77,159.67h130.42c.53,0,.53-.83,0-.83h-130.42c-.53,0-.53.83,0,.83h0Z"/>
        <circle class="cls-9" cx="349.53" cy="131.05" r="3.04" transform="translate(9.71 285.54) rotate(-45)"/>
        <circle class="cls-21" cx="337.91" cy="131.05" r="3.04" transform="translate(6.3 277.32) rotate(-45)"/>
      </g>
    </g>
    <g class="cls-19">
      <g>
        <rect class="cls-2" x="133.56" y="61.77" width="227.17" height="52.26" rx="13" ry="13"/>
        <rect class="cls-27" x="191.56" y="69.01" width="27.84" height="5.01" rx="2.51" ry="2.51"/>
        <path class="cls-13" d="m174.14,107.21h-28.89c-2.68,0-4.86-2.18-4.86-4.86v-28.89c0-2.68,2.18-4.86,4.86-4.86h28.89c2.68,0,4.86,2.18,4.86,4.86v28.89c0,2.68-2.18,4.86-4.86,4.86Zm-28.89-37.79c-2.22,0-4.03,1.81-4.03,4.03v28.89c0,2.22,1.81,4.03,4.03,4.03h28.89c2.22,0,4.03-1.81,4.03-4.03v-28.89c0-2.22-1.81-4.03-4.03-4.03h-28.89Z"/>
        <path class="cls-13" d="m174.14,107.21h-28.89c-2.68,0-4.86-2.18-4.86-4.86v-28.89c0-2.68,2.18-4.86,4.86-4.86h28.89c2.68,0,4.86,2.18,4.86,4.86v28.89c0,2.68-2.18,4.86-4.86,4.86Zm-28.89-37.79c-2.22,0-4.03,1.81-4.03,4.03v28.89c0,2.22,1.81,4.03,4.03,4.03h28.89c2.22,0,4.03-1.81,4.03-4.03v-28.89c0-2.22-1.81-4.03-4.03-4.03h-28.89Z"/>
        <path class="cls-13" d="m191.77,79.6h157.53c.53,0,.53-.83,0-.83h-157.53c-.53,0-.53.83,0,.83h0Z"/>
        <path class="cls-13" d="m191.77,88.87h157.53c.53,0,.53-.83,0-.83h-157.53c-.53,0-.53.83,0,.83h0Z"/>
        <path class="cls-13" d="m191.77,98.13h130.42c.53,0,.53-.83,0-.83h-130.42c-.53,0-.53.83,0,.83h0Z"/>
        <circle class="cls-10" cx="349.53" cy="69.51" r="3.04" transform="translate(201.57 393.72) rotate(-76.72)"/>
        <circle class="cls-10" cx="337.91" cy="69.51" r="3.04" transform="translate(192.62 382.41) rotate(-76.72)"/>
      </g>
      <g>
        <rect class="cls-2" x="133.56" width="227.17" height="52.26" rx="13" ry="13"/>
        <path class="cls-13" d="m174.14,45.44h-28.89c-2.68,0-4.86-2.18-4.86-4.86V11.69c0-2.68,2.18-4.86,4.86-4.86h28.89c2.68,0,4.86,2.18,4.86,4.86v28.89c0,2.68-2.18,4.86-4.86,4.86Zm-28.89-37.79c-2.22,0-4.03,1.81-4.03,4.03v28.89c0,2.22,1.81,4.03,4.03,4.03h28.89c2.22,0,4.03-1.81,4.03-4.03V11.69c0-2.22-1.81-4.03-4.03-4.03h-28.89Z"/>
        <path class="cls-13" d="m191.77,17.84h157.53c.53,0,.53-.83,0-.83h-157.53c-.53,0-.53.83,0,.83h0Z"/>
        <path class="cls-13" d="m191.77,27.1h157.53c.53,0,.53-.83,0-.83h-157.53c-.53,0-.53.83,0,.83h0Z"/>
        <path class="cls-13" d="m191.77,36.36h130.42c.53,0,.53-.83,0-.83h-130.42c-.53,0-.53.83,0,.83h0Z"/>
        <circle class="cls-10" cx="349.53" cy="7.74" r="3.04"/>
        <circle class="cls-10" cx="337.91" cy="7.74" r="3.04"/>
      </g>
      <g>
        <rect class="cls-2" x="133.56" y="123.31" width="227.17" height="52.26" rx="13" ry="13"/>
        <path class="cls-13" d="m174.14,168.75h-28.89c-2.68,0-4.86-2.18-4.86-4.86v-28.89c0-2.68,2.18-4.86,4.86-4.86h28.89c2.68,0,4.86,2.18,4.86,4.86v28.89c0,2.68-2.18,4.86-4.86,4.86Zm-28.89-37.79c-2.22,0-4.03,1.81-4.03,4.03v28.89c0,2.22,1.81,4.03,4.03,4.03h28.89c2.22,0,4.03-1.81,4.03-4.03v-28.89c0-2.22-1.81-4.03-4.03-4.03h-28.89Z"/>
        <path class="cls-27" d="m226.85,135.55h-32.78c-1.38,0-2.51-1.12-2.51-2.51h0c0-1.38,1.12-2.51,2.51-2.51h32.78c1.38,0,2.51,1.12,2.51,2.51h0c0,1.38-1.12,2.51-2.51,2.51Z"/>
        <path class="cls-13" d="m191.77,141.14h157.53c.53,0,.53-.83,0-.83h-157.53c-.53,0-.53.83,0,.83h0Z"/>
        <path class="cls-13" d="m191.77,150.41h157.53c.53,0,.53-.83,0-.83h-157.53c-.53,0-.53.83,0,.83h0Z"/>
        <path class="cls-13" d="m191.77,159.67h130.42c.53,0,.53-.83,0-.83h-130.42c-.53,0-.53.83,0,.83h0Z"/>
        <circle class="cls-10" cx="349.53" cy="131.05" r="3.04" transform="translate(9.71 285.54) rotate(-45)"/>
        <circle class="cls-10" cx="337.91" cy="131.05" r="3.04" transform="translate(6.3 277.32) rotate(-45)"/>
      </g>
    </g>
    <path class="cls-13" d="m239.53,80.27c1.21,10.59.05,21.39-3.49,31.45-3.16,8.97-8.18,17.26-14.64,24.24-6.43,6.95-14.26,12.57-22.91,16.43-8.93,3.99-18.68,6.02-28.45,6.02-12.28,0-24.47-3.25-35.09-9.42-1.25-.73-2.48-1.49-3.68-2.29-.45-.3-.86.42-.42.72,10.22,6.79,22.13,10.84,34.38,11.67,10.3.69,20.73-.86,30.35-4.59,8.95-3.47,17.15-8.76,24-15.48,6.85-6.71,12.3-14.8,15.95-23.66,3.91-9.49,5.68-19.82,5.22-30.08-.07-1.67-.21-3.34-.4-5-.06-.52-.89-.53-.83,0h0Z"/>
    <path class="cls-13" d="m255.47,80.27c-1.22,10.7-.03,21.65,3.57,31.81,3.21,9.06,8.28,17.42,14.81,24.47,6.51,7.03,14.45,12.73,23.21,16.62,9.09,4.03,18.99,6.11,28.93,6.08,12.36-.03,24.62-3.33,35.31-9.54,1.25-.73,2.48-1.49,3.68-2.29.44-.29.03-1.01-.42-.72-10.15,6.75-21.98,10.78-34.15,11.57-10.17.66-20.44-.89-29.94-4.57-8.85-3.43-16.97-8.71-23.74-15.37-6.73-6.62-12.11-14.59-15.69-23.33-3.85-9.39-5.59-19.58-5.14-29.72.07-1.67.21-3.34.4-5,.06-.53-.77-.53-.83,0h0Z"/>
    <path class="cls-26" d="m230.7,198.29c.18,3.18.58,6.47,2.06,9.33.68,1.32,1.61,2.52,2.73,3.49,1.31,1.14,2.84,1.95,4.45,2.57,3.78,1.46,7.94,1.94,11.94,1.25,1.99-.35,3.93-1.01,5.72-1.96,1.67-.89,3.16-2.04,4.29-3.57,2.08-2.79,2.55-6.4,2.34-9.79-.03-.44-.07-.88-.11-1.32-.02-.22-.17-.41-.41-.41-.21,0-.44.19-.41.41.35,3.24.24,6.72-1.41,9.62-1.83,3.21-5.36,5.06-8.85,5.93-3.75.94-7.74.7-11.42-.45-1.67-.52-3.31-1.22-4.74-2.24-1.15-.82-2.14-1.87-2.89-3.07-1.6-2.54-2.13-5.6-2.37-8.54-.03-.42-.06-.83-.09-1.25-.03-.53-.86-.53-.83,0h0Z"/>
  </g>
  <g>
    <path class="cls-21" d="m155.13,79.43s.03.02.04.03c.07.05.13.1.2.15.02.01.04.03.06.04.07.05.14.1.21.16,0,0,0,0,0,0,0,0,.01.01.02.02.02.01.03.02.05.03.06.05.12.09.19.14,0,0,0,0,0,0,0,0,.01.01.02.02.02.01.03.02.05.04.04.03.07.06.11.08.03.01.06.01.09.02.08-.03.16-.05.24-.08.02-.02.04-.04.05-.06.06-.16.11-.32.17-.49.08-.22.15-.44.23-.66.02-.04.04-.09.07-.13.08-.12.18-.18.33-.17.1,0,.18.05.25.1.03.03.06.06.08.09.07.08.14.15.2.23,0,0,0,0,0,0,.03.03.05.07.08.1.01.01.03.03.04.04.13.14.26.28.38.43.07.09.15.12.25.09.05,0,.1-.01.14-.02,0,0,.01,0,.02-.01,0,0,0,0,0,0,.04-.06.07-.12.11-.18,0-.01.01-.02.02-.03.02-.04.04-.07.06-.11,0-.02.02-.03.03-.05.03-.05.06-.1.09-.14,0-.01.01-.02.02-.03.02-.03.04-.07.06-.1,0,0,0,0,0,0,0,0,0-.01.01-.02,0-.01.01-.02.02-.03.05-.09.11-.18.16-.27.01-.02.02-.03.03-.05.01-.02.02-.04.04-.06,0,0,0,0,0,0,0,0,0-.01.01-.02.01-.02.02-.04.04-.06.06-.05.12-.1.17-.14.02,0,.03-.01.05-.02.06,0,.12,0,.18,0,.01,0,.03,0,.04,0,.06.04.12.08.18.13,0,0,.02.02.02.03.04.07.08.14.12.21.02.04.04.07.07.11.1.18.21.35.31.53.02.03.04.06.05.09.03.04.05.09.08.13,0,.01.01.02.02.03.03.07.09.06.14.06.02,0,.04,0,.05.01.11.03.2,0,.25-.1.14-.15.28-.31.42-.46.05-.05.09-.11.14-.16.12-.11.23-.22.35-.34.23-.06.45.05.52.25.05.15.09.3.15.45.05.14.11.28.16.43.04.11.07.22.11.32,0,0,0,.01.01.02h0s0,0,0,0c.01,0,.02.02.04.02.02,0,.03.01.05.02,0,0,.01,0,.02,0,0,0,0,0,.01,0,.01,0,.02,0,.03.01.08.04.16.06.24,0,.06-.05.12-.09.19-.14,0,0,.02-.01.02-.02.08-.06.16-.12.23-.18,0,0,.01-.01.02-.02.06-.05.12-.09.18-.14,0,0,0,0,.01-.01.01,0,.02-.02.04-.03,0,0,.02-.01.02-.02.09-.07.18-.15.28-.2.17-.09.25-.07.41.04.13.09.14.23.17.37.03.18.06.36.09.55.02.13.04.25.06.38,0,.06.01.13.01.19,0,.07.04.1.1.13.05.02.09.05.14.08h0s0,0,0,0c0,0,.02,0,.03.01,0,0,0,0,0,0h0s.03,0,.05,0c.01,0,.02-.01.03-.02.3-.14.61-.29.91-.43.12-.06.23-.11.37-.12.17,0,.32.15.35.26.02.1.02.2.02.3,0,.04-.01.08-.01.12,0,.16,0,.33-.01.49,0,0,0,.01,0,.02,0,.02,0,.03,0,.05,0,0,0,0,0,.01,0,.12-.01.24-.02.36,0,.08.01.15.08.2.07.05.1.15.21.13.01,0,.03,0,.04,0,.4-.1.8-.2,1.2-.3.21-.05.45.16.44.35,0,.14-.04.29-.07.43-.07.32-.15.63-.21.95,0,.04,0,.09.03.12.04.06.1.12.15.18.02.01.03.02.05.03.1,0,.19,0,.29,0,0,0,.01,0,.02-.01.02,0,.03,0,.05,0,0,0,.01,0,.02,0,.09,0,.18-.02.27-.02.1,0,.2,0,.3,0,.06,0,.13-.01.19-.03.12-.03.35.05.43.15.12.14.11.3.04.45-.16.38-.33.75-.49,1.13-.02.05.02.13.03.19,0,0,.01.01.02.02.04.16.17.17.29.19.17.03.34.06.51.09.17.03.35.05.52.08.29.06.39.32.31.55-.03.09-.1.17-.15.25-.17.25-.35.5-.52.75-.03.05-.01.07.02.1.11.07.22.13.33.2.06.04.12.08.18.12.28.19.51.43.7.71.12.17.19.38.26.57.11.28.1.59.08.88-.02.31-.1.62-.23.9-.17.37-.36.73-.56,1.08-.28.49-.57.98-.88,1.46-.3.47-.62.94-.95,1.39-.17.23-.38.43-.57.65,0,0-.01.01-.02.02-.15.11-.25.05-.26-.15,0-.13-.02-.27-.02-.4.01-.2.04-.41.06-.61.02-.19.04-.38.07-.56.02-.15.05-.29.07-.44.01-.09.03-.17.04-.26,0,0,0-.01,0-.02l.05-.29s0-.02,0-.03c0-.05.02-.1.03-.15h0s0-.01,0-.01c0-.02,0-.04.01-.05,0,0,0-.01,0-.02.03-.15.05-.3.08-.45,0,0,0,0,0-.01.01-.05.02-.11.03-.16,0-.02,0-.03,0-.05.03-.14.07-.28.1-.43.1-.5.21-.99.31-1.49.02-.11-.1-.25-.21-.22-.09.02-.19.05-.28.09-.41.18-.81.37-1.23.54-.13.05-.2.11-.22.26-.04.24-.12.47-.18.7-.06.15-.13.3-.19.45-.15.34-.35.64-.58.92-.23.28-.5.51-.8.71-.12.08-.24.14-.37.2-.06.03-.1.06-.06.13.02.04.02.09.02.13.03.51-.09.98-.36,1.41-.2.34-.47.62-.77.86-.12.09-.26.17-.39.24-.18.09-.37.17-.55.26-.2.09-.41.12-.61.17-.23.06-.47.07-.71.05-.18-.01-.37-.05-.55-.08-.02,0-.03-.02-.04-.03.58-.57,1.08-1.2,1.55-1.89-.05,0-.09,0-.13,0-.2.02-.4.05-.61.08-.17.02-.34.04-.51.05-.27.02-.53.05-.8.06-.25.01-.5.01-.76.02-.12,0-.24.01-.38.02,0-.05-.02-.1-.02-.15,0-.02,0-.04-.01-.06,0-.1,0-.19.01-.29,0-.02,0-.03,0-.05.05-.38.18-.73.38-1.05.3-.48.72-.83,1.22-1.1.06-.03.12-.08.18-.11.12-.04.23-.09.35-.13.25-.08.5-.14.76-.17.24-.03.47-.03.71,0,.15.02.29.05.44.07.01.02.03.04.04.04.27.06.51.19.74.34.02.02.06.02.09.01.35-.13.66-.33.91-.6.02-.02.03-.06.05-.09.19-.23.33-.49.43-.78-.03,0-.04,0-.04,0-.46.12-.91.25-1.37.35-.55.12-1.1.22-1.65.31-.45.07-.9.12-1.36.16-.31.03-.62.05-.93.07-.28.02-.55.03-.83.03-.39,0-.78,0-1.17-.01-.14,0-.27,0-.41-.02-.32-.02-.64-.04-.95-.06-.15-.01-.3-.02-.44-.03-.29-.03-.59-.07-.88-.11-.32-.04-.64-.08-.96-.14-.33-.05-.66-.12-.99-.18-.51-.11-1.02-.22-1.53-.33-.02,0-.04,0-.06,0,0,.02,0,.05,0,.07.11.29.26.56.47.78.01.02.02.05.04.06.32.31.7.52,1.14.62.03,0,.08,0,.11-.02.19-.14.4-.27.62-.35.02,0,.03-.03.04-.04.04,0,.07-.01.11-.02.26-.09.53-.15.8-.15.2,0,.4,0,.59.02.25.04.51.09.75.16.18.05.35.13.52.2.11.07.22.15.33.22.51.34.9.77,1.14,1.33.15.35.18.71.16,1.07,0,.05-.01.1-.09.06-.02,0-.04,0-.06,0-.35-.01-.7-.02-1.06-.03-.22,0-.45-.03-.67-.05-.21-.02-.41-.04-.62-.06-.14-.01-.28-.02-.41-.03-.06,0-.12-.02-.18-.03-.03,0-.05.01-.08.02,0,.02.01.05.03.07.08.13.16.27.25.4.13.2.27.39.41.58.15.19.31.38.47.57.1.11.2.22.32.34-.06.01-.11.02-.15.03-.25.05-.5.1-.76.09-.18,0-.35-.03-.53-.06-.17-.03-.34-.06-.5-.12-.25-.09-.49-.2-.72-.32-.31-.16-.57-.38-.8-.64-.21-.23-.38-.48-.49-.76-.07-.17-.12-.34-.17-.51-.05-.21-.06-.42-.03-.64,0-.02-.02-.07-.04-.07-.41-.15-.77-.38-1.11-.64-.26-.2-.47-.45-.65-.73-.07-.11-.13-.22-.2-.33-.02-.04-.04-.07-.06-.11-.02-.04-.04-.08-.06-.11-.05-.12-.12-.23-.15-.35-.09-.29-.17-.59-.26-.88-.01-.04-.05-.08-.09-.1-.33-.12-.67-.22-1-.34-.26-.09-.51-.19-.77-.29-.05-.02-.09-.04-.12,0-.02.03-.02.08-.02.12,0,.02.01.04.02.06.14.4.29.8.43,1.2,0,.03.02.06.03.08.02.05.04.11.07.16,0,0,0,0,0,0h0s0,.02,0,.02c0,0,0,.01,0,.02.01.04.03.08.04.12,0,0,0,.02.01.03h0s.01.03.02.05c.03.09.07.17.1.26.01.04,0,.08.02.12.04.11.08.21.11.31.05.17.1.34.15.51.04.15.09.3.13.46.04.15.08.31.13.46.03.12.08.23.1.35.03.15.06.31.09.46.04.2.06.41.05.61,0,.03,0,.06-.01.08-.03.09-.09.12-.16.07-.16-.1-.32-.2-.46-.33-.29-.27-.58-.55-.85-.85-.3-.33-.59-.66-.88-1-.27-.32-.53-.64-.78-.97-.2-.25-.4-.5-.58-.76-.11-.15-.18-.33-.27-.49-.12-.23-.2-.48-.25-.73-.03-.14-.05-.29-.05-.43,0-.15,0-.3.04-.45.04-.17.11-.34.19-.5.08-.16.17-.31.27-.45.15-.21.33-.39.55-.54.15-.1.29-.2.44-.3.04-.03.1-.04.14-.06.02-.01.05-.03.07-.04-.24-.35-.48-.69-.72-1.04-.16-.23-.1-.47.11-.6.1-.06.23-.06.34-.08.31-.06.63-.11.94-.16.12-.02.14-.11.19-.19.07-.11.04-.2,0-.3-.1-.2-.17-.4-.26-.6-.06-.14-.12-.28-.18-.41-.08-.15-.07-.3.02-.43.09-.13.22-.17.37-.16.15,0,.3,0,.45.01.01,0,.02,0,.03,0,.06,0,.13.01.19.02.07,0,.14,0,.21,0,.21.04.4.04.51-.18.02-.04.05-.09.04-.13-.02-.11-.05-.22-.07-.32h0s0,0,0,0c-.02-.07-.03-.14-.05-.21,0-.03-.01-.06-.02-.09-.01-.06-.02-.12-.04-.18,0-.03-.01-.05-.02-.08-.02-.09-.04-.17-.06-.26,0-.02-.01-.04-.02-.06v-.24s0-.03,0-.04c.02-.03.04-.07.06-.1.03-.03.06-.05.09-.08,0,0,.01,0,.02-.01,0,0,.01,0,.01,0,0,0,.01,0,.02-.01.02,0,.03-.01.05-.02h0s0,0,0,0h.02c.07,0,.14,0,.21,0,.03,0,.05.01.08.02.08.02.15.04.23.06,0,0,.01,0,.02,0,.12.03.23.06.35.09l.08.02s.05.01.08.02c.02,0,.03,0,.05.01.01,0,.02,0,.03,0,.03,0,.06.02.09.02.02,0,.04.01.07.02.05.01.11.06.16,0,.07-.05.14-.11.2-.16.13-.01.15-.03.15-.16,0-.13,0-.26-.02-.39,0-.07-.06-.13-.14-.14v-.18s-.02-.05-.02-.08v-.27c.01-.11.02-.22.04-.33,0,0,0-.01,0-.02,0-.01.01-.02.02-.03,0-.01.01-.02.02-.03.03-.03.06-.06.1-.09,0,0,0,0,.01,0,.01,0,.02-.01.03-.02.04-.01.09-.02.13-.03h.05s.03,0,.05.01c.07.03.14.05.21.08.2.09.39.18.59.28.05.02.11.05.16.07.03.01.05.02.08.04.03.02.06.03.1.05.01,0,.02.01.03.02.03.01.06.03.1.04.09-.05.18-.1.27-.15.01,0,.02-.03.02-.04.02-.16.04-.32.07-.48,0,0,0,0,0,0,.02-.14.04-.27.06-.41,0,0,0,0,0-.01.02-.1.05-.2.06-.3.02-.17.09-.3.25-.39.01,0,.02,0,.03-.01,0,0,0,0,.01,0,.04,0,.07,0,.11,0,.11,0,.19.06.27.12Zm1.17,7.77c-.18.12-.28.3-.33.5-.01.04,0,.09.01.14-.05.14-.11.27-.15.41-.12.36-.19.73-.11,1.11.08.39.28.7.59.95.21.16.44.27.68.36.12.05.25.11.39.08.2-.04.4-.07.59-.14.57-.2.87-.62.98-1.2.04-.22.04-.46.04-.69,0-.14-.01-.28-.05-.42-.05-.17-.11-.34-.19-.5-.14-.27-.33-.49-.61-.64-.2-.1-.41-.16-.63-.18-.27-.01-.53,0-.79.08-.02-.01-.03-.03-.05-.03-.14,0-.27.05-.37.16Zm6.08-.16c-.25-.04-.46.11-.57.33-.05.06-.12.1-.16.17-.09.15-.18.31-.26.47-.15.35-.23.71-.2,1.09.04.35.15.67.37.95.13.16.25.32.42.43.33.2.68.21,1.04.12.26-.07.5-.18.74-.32.27-.16.46-.38.56-.68.09-.28.09-.57.05-.86-.04-.32-.14-.62-.26-.92-.04-.1-.08-.22-.15-.3-.43-.49-.94-.67-1.59-.49Z"/>
    <path class="cls-16" d="m158.21,92.9c-.17-.07-.34-.15-.52-.2-.25-.07-.5-.13-.75-.16-.19-.03-.39-.02-.59-.02-.27,0-.54.06-.8.15-.03.01-.07.02-.11.02-.07,0-.13-.01-.2-.02-.22-.03-.44-.06-.67-.09-.16-.02-.33-.04-.49-.06-.2-.03-.4-.06-.59-.09-.22-.23-.36-.49-.47-.78,0-.02,0-.04,0-.07.02,0,.04,0,.06,0,.51.11,1.02.23,1.53.33.33.07.66.13.99.18.32.05.64.09.96.14.29.04.59.08.88.11.15.02.3.02.44.03.32.02.64.04.95.06.14,0,.27.01.41.02.39,0,.78.02,1.17.01.28,0,.55-.02.83-.03.31-.02.62-.03.93-.07.45-.05.91-.09,1.36-.16.55-.09,1.1-.19,1.65-.31.46-.1.91-.23,1.37-.35,0,0,.02,0,.04,0-.1.29-.23.55-.43.78-.03,0-.07,0-.1,0-.24.04-.47.09-.71.13-.19.03-.38.06-.57.09-.15.02-.29.04-.44.07-.15-.02-.29-.05-.44-.07-.23-.03-.47-.03-.71,0-.26.03-.51.08-.76.17-.12.04-.23.08-.35.13-.16,0-.33.02-.49.03-.13,0-.27.01-.4.02-.4,0-.8.01-1.2.02-.16,0-.32.01-.49.01-.36,0-.71,0-1.07-.02-.08,0-.15-.01-.23-.02Z"/>
    <path class="cls-3" d="m167.94,91.9c.06-.23.14-.46.18-.7.02-.15.09-.2.22-.26.41-.17.82-.36,1.23-.54.09-.04.18-.07.28-.09.11-.03.24.11.21.22-.11.49-.21.99-.31,1.49-.03.14-.06.28-.1.43-.01,0-.02.02-.03.03-.06.06-.11.13-.17.19-.3.32-.6.65-.91.96-.17.17-.37.31-.56.46-.01.01-.03.02-.05.02-.09.04-.14.01-.14-.09,0-.06,0-.11,0-.17,0-.03,0-.05.01-.08.02-.09.03-.17.05-.26.04-.16.07-.33.11-.49.01-.05.03-.1.05-.15,0,0,0-.02,0-.02,0-.03.02-.06.02-.09,0,0,0-.02,0-.03.02-.08.03-.16.05-.24.04-.11.08-.22.12-.33.04-.11.08-.21.12-.32.02-.05,0-.06-.04-.04-.12.04-.24.07-.36.1Z"/>
    <path class="cls-3" d="m149.93,91.86c-.14-.4-.29-.8-.43-1.2,0-.02-.02-.04-.02-.06,0-.04,0-.09.02-.12.03-.04.08-.02.12,0,.25.1.51.2.77.29.33.12.67.22,1,.34.04.01.08.06.09.1.09.29.17.59.26.88.04.12.1.23.15.35-.04.06.01.11.03.16.01.04.02.07.03.11,0,0,0,.01,0,.02,0,0,0,.01,0,.02.04.13.08.27.11.4.03.16.05.33.07.49.01.1.01.21.02.31,0,.07-.02.13-.1.15-.07-.05-.14-.09-.2-.14-.19-.17-.38-.35-.56-.53-.11-.11-.22-.23-.32-.35-.16-.18-.31-.37-.47-.55-.12-.14-.24-.28-.36-.42-.03-.03-.05-.07-.08-.1,0,0-.01-.02-.02-.03-.01-.02-.02-.03-.04-.05-.03-.02-.06-.04-.09-.07Z"/>
    <path class="cls-21" d="m152.29,82.3v-.45c0-.08,0-.16,0-.24.07,0,.13.06.14.14,0,.13.01.26.02.39,0,.13-.02.15-.15.16Z"/>
    <path class="cls-5" d="m156.71,87.07c.26-.08.52-.09.79-.08.22.01.43.07.63.18.28.14.47.36.61.64.08.16.14.33.19.5.04.13.05.28.05.42,0,.23,0,.47-.04.69-.11.57-.41,1-.98,1.2-.19.07-.39.1-.59.14-.14.03-.27-.03-.39-.08-.24-.09-.47-.2-.68-.36-.31-.25-.51-.56-.59-.95-.08-.38,0-.75.11-1.11.05-.14.1-.27.15-.41,0,0,0,0,0,0,0,0,0,0,0,0,0,.09,0,.19,0,.28,0,.21.06.39.17.56.09.14.21.25.37.31.18.06.36.01.51-.11.24-.19.31-.45.35-.74.02-.18-.01-.36-.07-.52-.08-.21-.19-.38-.41-.47-.06-.02-.12-.04-.18-.06,0,0,0,0,0-.01Zm.65,1.55s-.06.08-.1.11c.01,0,.02.01.03.02.02-.04.05-.09.07-.13,0,0,.02-.01.02-.02,0,0,0,0,0,0,0,0-.01.02-.02.02Zm.1-.86v.58h.02c-.01-.19.08-.39-.02-.58Zm-1,1.32v.02c.15.03.3.05.45-.02h-.45Zm.48-.02s.02.02.02.03c.1-.09.2-.19.3-.28,0,0-.01-.02-.02-.02-.1.09-.2.19-.31.28Zm.11-1.95c.06.06.13.14.21.22-.07-.09-.12-.18-.21-.22Zm.3.33s-.02.01-.02.02c.02.03.03.06.05.09,0,0,.02,0,.02-.01l-.05-.09Zm-.05-.02s0,0,.01-.01c-.01-.02-.03-.03-.04-.05l-.02.02s.03.03.05.04Z"/>
    <path class="cls-5" d="m162.37,87.04c.65-.18,1.16,0,1.59.49.07.08.11.19.15.3.12.3.22.6.26.92.04.29.04.58-.05.86-.1.3-.28.52-.56.68-.23.14-.48.25-.74.32-.36.09-.71.08-1.04-.12-.18-.11-.3-.27-.42-.43-.22-.28-.34-.6-.37-.95-.04-.38.04-.74.2-1.09.07-.16.16-.32.26-.47.04-.06.1-.11.16-.17.01,0,.03,0,.04,0-.17.25-.24.52-.19.83.04.24.14.46.33.62.19.16.39.17.58.06.29-.16.41-.44.43-.76.01-.17-.01-.33-.06-.5-.08-.29-.33-.51-.62-.52.02-.02.03-.04.05-.06Zm-.28,1.97c.11.09.42.08.46,0h-.46Zm-.54-.74v-.44s-.01,0-.02,0c-.06.14-.03.28.02.44Zm1.55-.03c.03-.15.07-.31,0-.46v.46Z"/>
    <path class="cls-28" d="m155.99,87.84h0s0,0,0,0c0-.05-.02-.1-.01-.14.05-.2.15-.38.33-.5,0,.02,0,.03,0,.05-.01.01-.02.03-.04.04-.14.16-.23.34-.27.55Z"/>
    <path class="cls-7" d="m162.37,87.04s-.03.04-.05.06c-.15-.02-.27.04-.37.15-.04.04-.07.08-.11.11-.01,0-.03,0-.04,0,.12-.22.32-.37.57-.33Z"/>
    <path class="cls-15" d="m156.29,87.25s0-.03,0-.05c.1-.1.22-.15.37-.16.02,0,.03.02.05.03,0,0,0,0,0,.01-.16,0-.3.06-.42.16Z"/>
    <path class="cls-29" d="m156.29,87.25c.12-.1.26-.16.42-.16.06.02.12.03.18.06.22.09.33.26.41.47.06.17.1.34.07.52-.03.28-.11.55-.35.74-.15.12-.33.17-.51.11-.16-.05-.28-.17-.37-.31-.11-.17-.17-.36-.17-.56,0-.09,0-.19,0-.28.04-.21.13-.39.27-.55.01-.01.02-.03.04-.04Z"/>
    <path class="cls-4" d="m157.47,87.76c.1.19,0,.39.02.58h-.02v-.58Z"/>
    <path class="cls-22" d="m156.47,89.07h.45c-.15.07-.3.05-.45.02v-.02Z"/>
    <path class="cls-23" d="m156.95,89.05c.1-.09.2-.19.31-.28,0,0,.01.02.02.02-.1.09-.2.19-.3.28,0,0-.02-.02-.02-.03Z"/>
    <path class="cls-20" d="m157.05,87.1c.08.04.14.13.21.22-.08-.08-.15-.16-.21-.22Z"/>
    <path class="cls-23" d="m157.37,88.62s-.05.09-.07.13c-.01,0-.02-.01-.03-.02.03-.04.06-.08.1-.11,0,0,0,0,0,0Z"/>
    <path class="cls-20" d="m157.35,87.43l.05.09s-.02,0-.02.01c-.02-.03-.03-.06-.05-.09,0,0,.02-.01.02-.02Z"/>
    <path class="cls-20" d="m157.3,87.4s-.03-.03-.05-.04l.02-.02s.03.03.04.05c0,0,0,0-.01.01Z"/>
    <path class="cls-23" d="m157.37,88.62s.01-.02.02-.02c0,0,0,0,0,0,0,0-.02.01-.02.02,0,0,0,0,0,0Z"/>
    <path class="cls-14" d="m161.84,87.36s.07-.08.11-.11c.1-.11.22-.17.37-.15.29.01.54.23.62.52.05.17.07.33.06.5-.02.32-.14.6-.43.76-.19.1-.39.09-.58-.06-.19-.16-.29-.38-.33-.62-.06-.3.02-.58.19-.83Z"/>
    <path class="cls-12" d="m162.09,89.01h.46c-.04.08-.35.09-.46,0Z"/>
    <path class="cls-1" d="m161.55,88.27c-.05-.16-.08-.3-.02-.44,0,0,.01,0,.02,0v.44Z"/>
    <path class="cls-8" d="m163.1,88.23v-.46c.07.16.03.31,0,.46Z"/>
  </g>
  <g>
    <path class="cls-21" d="m170.04,23.61c-8.16,0-15.96,1.52-23.16,4.27-.07.14-.13.28-.17.43-.04.14-.04.3-.04.45,0,.14.02.29.05.43.06.25.13.5.26.73.09.17.17.34.27.49.18.26.38.51.58.76.26.33.52.65.78.97.29.34.58.68.88,1,.27.29.56.57.85.85.14.13.3.23.46.33.08.05.14.02.16-.07,0-.03.01-.06.01-.08,0-.21,0-.41-.05-.61-.03-.15-.05-.31-.09-.46-.03-.12-.07-.24-.1-.35-.04-.15-.08-.31-.13-.46-.04-.15-.09-.3-.13-.46-.05-.17-.09-.34-.15-.51-.03-.11-.08-.21-.11-.31-.01-.04,0-.08-.02-.12-.03-.09-.07-.17-.1-.26,0-.02-.01-.03-.02-.05h0s0-.02-.01-.03c-.01-.04-.03-.08-.04-.12,0,0,0-.01,0-.02,0,0,0-.01,0-.02h0s0,0,0,0c-.02-.05-.04-.11-.07-.16,0-.03-.02-.06-.03-.08-.14-.4-.29-.8-.43-1.2,0-.02-.02-.04-.02-.06,0-.04,0-.09.02-.12.03-.04.08-.02.12,0,.25.1.51.2.77.29.33.12.67.22,1,.34.04.01.08.06.09.1.09.29.17.59.26.88.04.12.1.23.15.35.02.04.04.08.06.11.02.04.04.07.06.11.07.11.13.22.2.33.18.27.39.53.65.73.34.26.7.5,1.11.64.02,0,.04.05.04.07-.02.21-.02.43.03.64.05.17.1.35.17.51.12.28.28.54.49.76.23.25.49.48.8.64.23.12.48.23.72.32.16.06.33.09.5.12.17.03.35.06.53.06.26,0,.51-.03.76-.09.04,0,.09-.02.15-.03-.12-.13-.22-.23-.32-.34-.16-.19-.32-.37-.47-.57-.14-.19-.28-.38-.41-.58-.09-.13-.17-.27-.25-.4-.01-.02-.02-.05-.03-.07.03,0,.06-.03.08-.02.06,0,.12.02.18.03.14.01.28.02.41.03.21.02.41.05.62.06.22.02.45.04.67.05.35.02.7.02,1.06.03.02,0,.05,0,.06,0,.07.04.08-.01.09-.06.02-.37-.02-.73-.16-1.07-.24-.57-.63-1-1.14-1.33-.11-.07-.22-.15-.33-.22-.17-.07-.34-.15-.52-.2-.25-.07-.5-.13-.75-.16-.19-.03-.39-.02-.59-.02-.27,0-.54.06-.8.15-.03.01-.07.02-.11.02-.01.01-.02.03-.04.04-.23.09-.43.22-.62.35-.03.02-.08.03-.11.02-.44-.1-.82-.31-1.14-.62-.02-.02-.03-.04-.04-.06-.22-.23-.36-.49-.47-.78,0-.02,0-.04,0-.07.02,0,.04,0,.06,0,.51.11,1.02.23,1.53.33.33.07.66.13.99.18.32.05.64.09.96.14.29.04.59.08.88.11.15.02.3.02.44.03.32.02.64.04.95.06.14,0,.27.01.41.02.39,0,.78.02,1.17.01.28,0,.55-.02.83-.03.31-.02.62-.03.93-.07.45-.05.91-.09,1.36-.16.55-.09,1.1-.19,1.65-.31.46-.1.91-.23,1.37-.35,0,0,.02,0,.04,0-.1.29-.23.55-.43.78-.02.03-.03.06-.05.09-.25.28-.56.47-.91.6-.02,0-.06,0-.09-.01-.23-.15-.47-.29-.74-.34-.02,0-.03-.03-.04-.04-.15-.02-.29-.05-.44-.07-.23-.03-.47-.03-.71,0-.26.03-.51.08-.76.17-.12.04-.23.08-.35.13-.06.04-.11.08-.18.11-.5.27-.91.62-1.22,1.1-.2.32-.34.67-.38,1.05,0,.02,0,.03,0,.05,0,.1,0,.19-.01.29,0,.02,0,.04.01.06,0,.05.02.1.02.15.13,0,.25-.02.38-.02.25,0,.5,0,.76-.02.27-.01.53-.04.8-.06.17-.01.34-.03.51-.05.2-.02.4-.05.61-.08.04,0,.08,0,.13,0-.46.69-.96,1.32-1.55,1.89.02.01.03.03.04.03.18.03.37.07.55.08.24.02.48,0,.71-.05.21-.05.42-.08.61-.17.19-.08.37-.17.55-.26.14-.07.27-.14.39-.24.31-.24.57-.52.77-.86.26-.44.39-.9.36-1.41,0-.04,0-.09-.02-.13-.03-.07,0-.1.06-.13.13-.06.26-.12.37-.2.3-.2.57-.44.8-.71.23-.28.43-.59.58-.92.07-.15.13-.3.19-.45.06-.23.14-.46.18-.7.02-.15.09-.2.22-.26.41-.17.82-.36,1.23-.54.09-.04.18-.07.28-.09.11-.03.24.11.21.22-.1.49-.21.99-.31,1.49-.03.14-.06.28-.1.43,0,.02,0,.03,0,.05-.01.05-.02.11-.03.16,0,0,0,0,0,.01l-.08.45s0,.01,0,.02c0,.02,0,.04-.01.05h0s0,.01,0,.01c0,.05-.02.1-.03.15,0,.01,0,.02,0,.03-.02.1-.03.19-.05.29,0,0,0,.01,0,.02-.01.09-.02.17-.04.26-.02.15-.05.29-.07.44-.03.19-.05.37-.07.56-.02.2-.05.41-.06.61,0,.13,0,.27.02.4.02.21.11.26.26.15,0,0,.01,0,.02-.02.19-.22.4-.42.57-.65.33-.45.65-.92.95-1.39.31-.48.6-.97.88-1.46.2-.35.39-.71.56-1.08.13-.28.21-.59.23-.9.02-.3.03-.6-.08-.88-.07-.2-.15-.4-.26-.57-.19-.27-.42-.51-.7-.71-.06-.04-.12-.08-.18-.12-.11-.07-.22-.13-.33-.2-.03-.02-.06-.05-.02-.1.18-.25.35-.5.52-.75.06-.08.12-.16.15-.25.08-.23-.02-.49-.31-.55-.17-.03-.35-.06-.52-.08-.17-.03-.34-.06-.51-.09-.12-.02-.25-.03-.29-.19,0,0-.01-.01-.02-.02-.01-.06-.05-.14-.03-.19.08-.19.16-.37.24-.55-.11,0-.21,0-.32,0Zm-11.09,4.06c-.11.57-.41,1-.98,1.2-.19.07-.39.1-.59.14-.14.03-.27-.03-.39-.08-.24-.09-.47-.2-.68-.36-.31-.25-.51-.56-.59-.95-.08-.38,0-.75.11-1.11.05-.14.1-.27.15-.41,0-.05-.02-.1-.01-.14.05-.2.15-.38.33-.5.1-.1.22-.15.37-.16.02,0,.03.02.05.03.26-.08.52-.09.79-.08.22.01.43.07.63.18.28.14.47.36.61.64.08.16.14.33.19.5.04.13.05.28.05.42,0,.23,0,.47-.04.69Zm5.37.18c-.1.3-.28.52-.56.68-.23.14-.48.25-.74.32-.36.09-.71.08-1.04-.12-.18-.11-.3-.27-.42-.43-.22-.28-.34-.6-.37-.95-.04-.38.04-.74.2-1.09.07-.16.16-.32.26-.47.04-.06.1-.11.16-.17.12-.22.32-.37.57-.33.65-.18,1.16,0,1.59.49.07.08.11.19.15.3.12.3.22.6.26.92.04.29.04.58-.05.86Z"/>
    <path class="cls-16" d="m158.21,31.16c-.17-.07-.34-.15-.52-.2-.25-.07-.5-.13-.75-.16-.19-.03-.39-.02-.59-.02-.27,0-.54.06-.8.15-.03.01-.07.02-.11.02-.07,0-.13-.01-.2-.02-.22-.03-.44-.06-.67-.09-.16-.02-.33-.04-.49-.06-.2-.03-.4-.06-.59-.09-.22-.23-.36-.49-.47-.78,0-.02,0-.04,0-.07.02,0,.04,0,.06,0,.51.11,1.02.23,1.53.33.33.07.66.13.99.18.32.05.64.09.96.14.29.04.59.08.88.11.15.02.3.02.44.03.32.02.64.04.95.06.14,0,.27.01.41.02.39,0,.78.02,1.17.01.28,0,.55-.02.83-.03.31-.02.62-.03.93-.07.45-.05.91-.09,1.36-.16.55-.09,1.1-.19,1.65-.31.46-.1.91-.23,1.37-.35,0,0,.02,0,.04,0-.1.29-.23.55-.43.78-.03,0-.07,0-.1,0-.24.04-.47.09-.71.13-.19.03-.38.06-.57.09-.15.02-.29.04-.44.07-.15-.02-.29-.05-.44-.07-.23-.03-.47-.03-.71,0-.26.03-.51.08-.76.17-.12.04-.23.08-.35.13-.16,0-.33.02-.49.03-.13,0-.27.01-.4.02-.4,0-.8.01-1.2.02-.16,0-.32.01-.49.01-.36,0-.71,0-1.07-.02-.08,0-.15-.01-.23-.02Z"/>
    <path class="cls-3" d="m167.94,30.16c.06-.23.14-.46.18-.7.02-.15.09-.2.22-.26.41-.17.82-.36,1.23-.54.09-.04.18-.07.28-.09.11-.03.24.11.21.22-.11.49-.21.99-.31,1.49-.03.14-.06.28-.1.43-.01,0-.02.02-.03.03-.06.06-.11.13-.17.19-.3.32-.6.65-.91.96-.17.17-.37.31-.56.46-.01.01-.03.02-.05.02-.09.04-.14.01-.14-.09,0-.06,0-.11,0-.17,0-.03,0-.05.01-.08.02-.09.03-.17.05-.26.04-.16.07-.33.11-.49.01-.05.03-.1.05-.15,0,0,0-.02,0-.02,0-.03.02-.06.02-.09,0,0,0-.02,0-.03.02-.08.03-.16.05-.24.04-.11.08-.22.12-.33.04-.11.08-.21.12-.32.02-.05,0-.06-.04-.04-.12.04-.24.07-.36.1Z"/>
    <path class="cls-3" d="m149.93,30.12c-.14-.4-.29-.8-.43-1.2,0-.02-.02-.04-.02-.06,0-.04,0-.09.02-.12.03-.04.08-.02.12,0,.25.1.51.2.77.29.33.12.67.22,1,.34.04.01.08.06.09.1.09.29.17.59.26.88.04.12.1.23.15.35-.04.06.01.11.03.16.01.04.02.07.03.11,0,0,0,.01,0,.02,0,0,0,.01,0,.02.04.13.08.27.11.4.03.16.05.33.07.49.01.1.01.21.02.31,0,.07-.02.13-.1.15-.07-.05-.14-.09-.2-.14-.19-.17-.38-.35-.56-.53-.11-.11-.22-.23-.32-.35-.16-.18-.31-.37-.47-.55-.12-.14-.24-.28-.36-.42-.03-.03-.05-.07-.08-.1,0,0-.01-.02-.02-.03-.01-.02-.02-.03-.04-.05-.03-.02-.06-.04-.09-.07Z"/>
    <path class="cls-5" d="m156.71,25.33c.26-.08.52-.09.79-.08.22.01.43.07.63.18.28.14.47.36.61.64.08.16.14.33.19.5.04.13.05.28.05.42,0,.23,0,.47-.04.69-.11.57-.41,1-.98,1.2-.19.07-.39.1-.59.14-.14.03-.27-.03-.39-.08-.24-.09-.47-.2-.68-.36-.31-.25-.51-.56-.59-.95-.08-.38,0-.75.11-1.11.05-.14.1-.27.15-.41,0,0,0,0,0,0,0,0,0,0,0,0,0,.09,0,.19,0,.28,0,.21.06.39.17.56.09.14.21.25.37.31.18.06.36.01.51-.11.24-.19.31-.45.35-.74.02-.18-.01-.36-.07-.52-.08-.21-.19-.38-.41-.47-.06-.02-.12-.04-.18-.06,0,0,0,0,0-.01Zm.65,1.55s-.06.08-.1.11c.01,0,.02.01.03.02.02-.04.05-.09.07-.13,0,0,.02-.01.02-.02,0,0,0,0,0,0,0,0-.01.02-.02.02Zm.1-.86v.58h.02c-.01-.19.08-.39-.02-.58Zm-1,1.32v.02c.15.03.3.05.45-.02h-.45Zm.48-.02s.02.02.02.03c.1-.09.2-.19.3-.28,0,0-.01-.02-.02-.02-.1.09-.2.19-.31.28Zm.11-1.95c.06.06.13.14.21.22-.07-.09-.12-.18-.21-.22Zm.3.33s-.02.01-.02.02c.02.03.03.06.05.09,0,0,.02,0,.02-.01l-.05-.09Zm-.05-.02s0,0,.01-.01c-.01-.02-.03-.03-.04-.05l-.02.02s.03.03.05.04Z"/>
    <path class="cls-5" d="m162.37,25.3c.65-.18,1.16,0,1.59.49.07.08.11.19.15.3.12.3.22.6.26.92.04.29.04.58-.05.86-.1.3-.28.52-.56.68-.23.14-.48.25-.74.32-.36.09-.71.08-1.04-.12-.18-.11-.3-.27-.42-.43-.22-.28-.34-.6-.37-.95-.04-.38.04-.74.2-1.09.07-.16.16-.32.26-.47.04-.06.1-.11.16-.17.01,0,.03,0,.04,0-.17.25-.24.52-.19.83.04.24.14.46.33.62.19.16.39.17.58.06.29-.16.41-.44.43-.76.01-.17-.01-.33-.06-.5-.08-.29-.33-.51-.62-.52.02-.02.03-.04.05-.06Zm-.28,1.97c.11.09.42.08.46,0h-.46Zm-.54-.74v-.44s-.01,0-.02,0c-.06.14-.03.28.02.44Zm1.55-.03c.03-.15.07-.31,0-.46v.46Z"/>
    <path class="cls-28" d="m155.99,26.1h0s0,0,0,0c0-.05-.02-.1-.01-.14.05-.2.15-.38.33-.5,0,.02,0,.03,0,.05-.01.01-.02.03-.04.04-.14.16-.23.34-.27.55Z"/>
    <path class="cls-7" d="m162.37,25.3s-.03.04-.05.06c-.15-.02-.27.04-.37.15-.04.04-.07.08-.11.11-.01,0-.03,0-.04,0,.12-.22.32-.37.57-.33Z"/>
    <path class="cls-15" d="m156.29,25.51s0-.03,0-.05c.1-.1.22-.15.37-.16.02,0,.03.02.05.03,0,0,0,0,0,.01-.16,0-.3.06-.42.16Z"/>
    <path class="cls-29" d="m156.29,25.51c.12-.1.26-.16.42-.16.06.02.12.03.18.06.22.09.33.26.41.47.06.17.1.34.07.52-.03.28-.11.55-.35.74-.15.12-.33.17-.51.11-.16-.05-.28-.17-.37-.31-.11-.17-.17-.36-.17-.56,0-.09,0-.19,0-.28.04-.21.13-.39.27-.55.01-.01.02-.03.04-.04Z"/>
    <path class="cls-4" d="m157.47,26.02c.1.19,0,.39.02.58h-.02v-.58Z"/>
    <path class="cls-22" d="m156.47,27.33h.45c-.15.07-.3.05-.45.02v-.02Z"/>
    <path class="cls-23" d="m156.95,27.31c.1-.09.2-.19.31-.28,0,0,.01.02.02.02-.1.09-.2.19-.3.28,0,0-.02-.02-.02-.03Z"/>
    <path class="cls-20" d="m157.05,25.36c.08.04.14.13.21.22-.08-.08-.15-.16-.21-.22Z"/>
    <path class="cls-23" d="m157.37,26.88s-.05.09-.07.13c-.01,0-.02-.01-.03-.02.03-.04.06-.08.1-.11,0,0,0,0,0,0Z"/>
    <path class="cls-20" d="m157.35,25.69l.05.09s-.02,0-.02.01c-.02-.03-.03-.06-.05-.09,0,0,.02-.01.02-.02Z"/>
    <path class="cls-20" d="m157.3,25.66s-.03-.03-.05-.04l.02-.02s.03.03.04.05c0,0,0,0-.01.01Z"/>
    <path class="cls-23" d="m157.37,26.88s.01-.02.02-.02c0,0,0,0,0,0,0,0-.02.01-.02.02,0,0,0,0,0,0Z"/>
    <path class="cls-14" d="m161.84,25.62s.07-.08.11-.11c.1-.11.22-.17.37-.15.29.01.54.23.62.52.05.17.07.33.06.5-.02.32-.14.6-.43.76-.19.1-.39.09-.58-.06-.19-.16-.29-.38-.33-.62-.06-.3.02-.58.19-.83Z"/>
    <path class="cls-12" d="m162.09,27.27h.46c-.04.08-.35.09-.46,0Z"/>
    <path class="cls-1" d="m161.55,26.53c-.05-.16-.08-.3-.02-.44,0,0,.01,0,.02,0v.44Z"/>
    <path class="cls-8" d="m163.1,26.49v-.46c.07.16.03.31,0,.46Z"/>
  </g>
  <g>
    <g>
      <path class="cls-21" d="m172.35,150.68c-.19-.27-.42-.51-.7-.71-.06-.04-.12-.08-.18-.12-.11-.07-.22-.13-.33-.2-.03-.02-.06-.05-.02-.1.18-.25.35-.5.52-.75.06-.08.12-.16.15-.25.08-.23-.02-.49-.31-.55-.17-.03-.35-.06-.52-.08-.17-.03-.34-.06-.51-.09-.12-.02-.25-.03-.29-.19,0,0-.01-.01-.02-.02-.01-.06-.05-.14-.03-.19.16-.38.33-.75.49-1.13.07-.15.07-.31-.04-.45-.08-.1-.31-.18-.43-.15-.06.02-.13.03-.19.03-.1,0-.2,0-.3,0-.09,0-.18.01-.27.02,0,0-.01,0-.02,0-.02,0-.03,0-.05,0h-.02c-.1.01-.19.01-.29.01-.02-.01-.03-.02-.05-.03-.05-.06-.1-.11-.15-.18-.02-.03-.04-.09-.03-.12.07-.32.14-.63.21-.95.03-.14.06-.28.07-.43,0-.19-.23-.4-.44-.35-.4.1-.8.2-1.2.3-.01,0-.03,0-.04,0-.11.01-.14-.09-.21-.13-.07-.05-.09-.12-.08-.2.01-.12.02-.24.02-.36,0,0,0-.01,0-.01v-.05s0,0,0-.02c0-.16,0-.33.01-.49,0-.04.01-.08.01-.12,0-.1,0-.2-.02-.3-.03-.12-.18-.27-.35-.26-.14,0-.25.06-.37.12-.3.15-.61.29-.91.43-.01,0-.02.01-.03.02-.02,0-.03,0-.05,0h0s0,0,0,0c0,0-.02,0-.03-.01h0s0,0,0,0c-.05-.03-.09-.05-.14-.08-.06-.03-.1-.06-.1-.13,0-.06,0-.13-.01-.19-.02-.13-.04-.25-.06-.38-.03-.18-.06-.36-.09-.55-.02-.14-.03-.28-.17-.37-.16-.11-.24-.13-.41-.04-.1.05-.18.14-.28.2,0,0-.02.01-.02.02-.01,0-.02.02-.04.03,0,0,0,0-.01.01-.06.05-.12.09-.18.14,0,0-.01.01-.02.02-.08.06-.16.12-.23.18,0,0-.02.01-.02.02-.06.05-.13.09-.19.14-.08.07-.16.05-.24,0-.01,0-.02,0-.03-.01,0,0,0,0-.01,0,0,0-.01,0-.02,0-.02,0-.03-.01-.05-.02-.01,0-.02-.02-.04-.02h0s0-.01-.01-.02c-.04-.11-.07-.22-.11-.32-.05-.14-.11-.28-.16-.43-.05-.15-.1-.3-.15-.45-.07-.21-.29-.31-.52-.25-.12.11-.23.22-.35.34-.05.05-.09.11-.14.16-.14.15-.28.31-.42.46-.05.11-.14.14-.25.1-.02,0-.04,0-.05-.01-.06,0-.12.01-.14-.06,0-.01-.01-.02-.02-.03-.03-.04-.05-.09-.08-.13-.02-.03-.04-.06-.05-.09-.1-.18-.21-.35-.31-.53-.02-.04-.04-.07-.07-.11-.04-.07-.08-.14-.12-.21,0,0-.02-.02-.02-.03l-.18-.13s-.03,0-.04,0h-.18s-.03.01-.05.02l-.17.14s-.02.04-.04.06c0,0,0,.01-.01.02h0s-.02.04-.04.06c-.01.02-.02.03-.03.05l-.16.27s-.01.02-.02.03v.02s-.01,0-.01,0c-.02.03-.04.07-.06.1,0,.01-.01.02-.02.03-.03.05-.06.1-.09.14,0,.02-.02.03-.03.05-.02.04-.04.07-.06.11,0,.01-.01.02-.02.03-.04.06-.07.12-.11.18,0,0-.01,0-.02.01-.05,0-.1.01-.14.02-.11.03-.18,0-.25-.09-.12-.15-.25-.29-.38-.43-.01-.01-.03-.03-.04-.04-.03-.03-.05-.07-.08-.1,0,0,0,0,0,0-.07-.08-.14-.15-.2-.23-.03-.03-.06-.06-.08-.09-.08-.06-.15-.11-.25-.1-.14,0-.25.06-.33.17-.03.04-.05.09-.07.13-.08.22-.15.44-.23.66-.06.16-.11.33-.17.49,0,.02-.03.04-.05.06-.08.03-.16.05-.24.08-.03,0-.06,0-.09-.02-.04-.02-.07-.05-.11-.08-.02-.01-.03-.02-.05-.04,0,0-.01-.01-.02-.02,0,0,0,0,0,0-.06-.05-.12-.09-.19-.14-.02-.01-.03-.02-.05-.03,0,0-.01-.01-.02-.02,0,0,0,0,0,0l-.21-.16s-.04-.03-.06-.04c-.07-.05-.13-.1-.2-.15l-.04-.03c-.08-.05-.16-.12-.27-.12-.04,0-.07,0-.11,0,0,0,0,0-.01,0-.01,0-.02,0-.03.01-.16.08-.23.21-.25.39-.01.1-.04.2-.06.3,0,0,0,.01,0,.01l-.06.41h0c-.02.17-.04.33-.07.49,0,.01-.01.03-.02.04-.09.05-.18.1-.27.15-.03-.01-.06-.03-.1-.04-.01,0-.02-.01-.03-.02-.03-.02-.06-.03-.1-.05-.03-.01-.05-.02-.08-.04l-.16-.07c-.2-.09-.39-.19-.59-.28-.07-.03-.14-.06-.21-.08-.02,0-.03,0-.05-.01-.02,0-.03,0-.05,0-.04.01-.09.02-.13.03-.01,0-.02.01-.03.02,0,0,0,0-.01,0-.03.03-.06.06-.1.09,0,.01-.01.02-.02.03,0,.01-.01.02-.02.03,0,0,0,.01,0,.02-.01.11-.03.22-.04.33v.27s.01.05.02.08c0,.06,0,.12,0,.18.07,0,.13.06.14.14,0,.13.01.26.02.39,0,.13-.02.15-.15.16-.07.05-.14.11-.2.16-.06.05-.11,0-.16,0-.02,0-.04-.01-.07-.02-.03,0-.06-.02-.09-.02h-.03s-.03-.01-.05-.02c-.03,0-.05-.01-.08-.02-.03,0-.05-.01-.08-.02-.12-.03-.23-.06-.35-.09,0,0-.01,0-.02,0-.08-.02-.15-.04-.23-.06-.03,0-.05-.01-.08-.02-.07,0-.14,0-.21,0,0,0-.01,0-.02,0h0s0,0,0,0c-.02,0-.03.01-.05.02,0,0-.01,0-.02.01,0,0,0,0-.01,0,0,0-.01,0-.02.01-.03.03-.06.05-.1.08-.02.03-.04.07-.06.1l-.02.04c0,.08,0,.16,0,.24,0,.02.01.04.02.06.02.09.04.17.06.26,0,.03.01.05.02.08.01.06.02.12.04.18,0,.03.01.06.02.09.02.07.03.14.05.21h0s0,0,0,0c.03.11.06.21.07.32,0,.04-.02.09-.04.13-.11.23-.3.22-.51.18-.07-.01-.14,0-.21,0l-.19-.02s-.02,0-.03,0c-.15,0-.3,0-.45-.01-.15,0-.28.03-.37.16-.09.14-.1.28-.02.43.07.13.12.28.18.41.09.2.16.41.26.6.05.11.08.2,0,.3-.05.08-.07.17-.19.19-.32.05-.63.1-.94.16-.12.02-.24.03-.34.08-.21.12-.27.36-.11.6.2.29.4.58.6.87,2.6.93,5.28,1.69,8.02,2.28-.3-.24-.49-.55-.57-.92-.08-.38,0-.75.11-1.11.05-.14.1-.27.15-.41,0-.05-.02-.1-.01-.14.05-.2.15-.38.33-.5.1-.1.22-.15.37-.16.02,0,.03.02.05.03.26-.08.52-.09.79-.08.22.01.43.07.63.18.28.14.47.36.61.64.08.16.14.33.19.5.04.13.05.28.05.42,0,.23,0,.47-.04.69-.11.57-.41,1-.98,1.2,0,0-.02,0-.03,0,2.73.52,5.51.87,8.35,1.03.09-.02.18-.05.27-.07,0,0,.02,0,.04,0-.01.03-.03.06-.04.09.48.03.96.03,1.44.04.05-.17.1-.34.13-.51.02-.15.09-.2.22-.26.41-.17.82-.36,1.23-.54.09-.04.18-.07.28-.09.11-.03.24.11.21.22-.09.41-.17.81-.26,1.22.08,0,.15,0,.23,0,.78,0,1.55-.03,2.32-.06.03-.07.07-.13.11-.2.13-.28.21-.59.23-.9.02-.3.03-.6-.08-.88-.07-.2-.15-.4-.26-.57Zm-8.03.45c-.1.3-.28.52-.56.68-.23.14-.48.25-.74.32-.36.09-.71.08-1.04-.12-.18-.11-.3-.27-.42-.43-.22-.28-.34-.6-.37-.95-.04-.38.04-.74.2-1.09.07-.16.16-.32.26-.47.04-.06.1-.11.16-.17.12-.22.32-.37.57-.33.65-.18,1.16,0,1.59.49.07.08.11.19.15.3.12.3.22.6.26.92.04.29.04.58-.05.86Z"/>
      <polygon class="cls-21" points="163 141.6 163 141.6 163 141.6 163 141.6"/>
    </g>
    <path class="cls-16" d="m166.28,153.18c.09,0,.18.02.28.02.01-.03.03-.06.04-.09-.03,0-.04,0-.04,0-.09.02-.18.05-.27.07Z"/>
    <path class="cls-3" d="m170.06,152.07c.02-.11-.1-.25-.21-.22-.09.02-.19.05-.28.09-.41.18-.81.37-1.23.54-.13.05-.2.11-.22.26-.03.17-.08.34-.13.51.6.02,1.21.04,1.81.05.09-.41.17-.81.26-1.22Z"/>
    <path class="cls-21" d="m152.29,143.85v-.45c0-.08,0-.16,0-.24.07,0,.13.06.14.14,0,.13.01.26.02.39,0,.13-.02.15-.15.16Z"/>
    <path class="cls-5" d="m158.74,149.35c-.14-.27-.33-.49-.61-.64-.2-.1-.41-.16-.63-.18-.27-.01-.53,0-.79.08,0,0,0,0,0,.01.06.02.12.03.18.06.22.09.33.26.41.47.06.17.1.34.07.52-.03.28-.11.55-.35.74-.15.12-.33.17-.51.11-.16-.05-.28-.17-.37-.31-.11-.17-.17-.36-.17-.56,0-.09,0-.19,0-.28h-.01c-.05.14-.11.27-.15.41-.12.36-.19.73-.11,1.11.08.37.27.68.57.92.55.12,1.1.23,1.65.33,0,0,.02,0,.03,0,.57-.2.87-.62.98-1.2.04-.22.04-.46.04-.69,0-.14-.01-.28-.05-.42-.05-.17-.11-.34-.19-.5Zm-1.69-.71c.08.04.14.13.21.22-.08-.08-.15-.16-.21-.22Zm.25.3s-.03-.03-.05-.04c0,0,.01-.01.02-.02.01.02.03.03.04.05,0,0,0,0-.01.01Zm-.84,1.69s0-.01,0-.02h.45c-.15.07-.3.05-.45.02Zm.5-.02l-.02-.03c.1-.09.2-.19.31-.28,0,0,.01.02.02.02-.1.09-.2.19-.3.28Zm.4-.45s-.05.09-.07.13c-.01,0-.02-.01-.03-.02.03-.04.06-.08.1-.11,0,0,.01-.02.02-.02,0,0,0,0,0,0,0,0-.02.01-.02.02Zm0-1.09s-.03-.06-.05-.09c0,0,.02-.01.02-.02.02.03.03.06.05.09,0,0-.02,0-.02.01Zm.11.8s-.01,0-.02,0v-.58c.1.19,0,.39.02.58Z"/>
    <path class="cls-5" d="m162.37,148.58c.65-.18,1.16,0,1.59.49.07.08.11.19.15.3.12.3.22.6.26.92.04.29.04.58-.05.86-.1.3-.28.52-.56.68-.23.14-.48.25-.74.32-.36.09-.71.08-1.04-.12-.18-.11-.3-.27-.42-.43-.22-.28-.34-.6-.37-.95-.04-.38.04-.74.2-1.09.07-.16.16-.32.26-.47.04-.06.1-.11.16-.17.01,0,.03,0,.04,0-.17.25-.24.52-.19.83.04.24.14.46.33.62.19.16.39.17.58.06.29-.16.41-.44.43-.76.01-.17-.01-.33-.06-.5-.08-.29-.33-.51-.62-.52.02-.02.03-.04.05-.06Zm-.28,1.97c.11.09.42.08.46,0h-.46Zm-.54-.74v-.44s-.01,0-.02,0c-.06.14-.03.28.02.44Zm1.55-.03c.03-.15.07-.31,0-.46v.46Z"/>
    <path class="cls-28" d="m155.99,149.38h0s0,0,0,0c0-.05-.02-.1-.01-.14.05-.2.15-.38.33-.5,0,.02,0,.03,0,.05-.01.01-.02.03-.04.04-.14.16-.23.34-.27.55Z"/>
    <path class="cls-7" d="m162.37,148.58s-.03.04-.05.06c-.15-.02-.27.04-.37.15-.04.04-.07.08-.11.11-.01,0-.03,0-.04,0,.12-.22.32-.37.57-.33Z"/>
    <path class="cls-15" d="m156.29,148.79s0-.03,0-.05c.1-.1.22-.15.37-.16.02,0,.03.02.05.03,0,0,0,0,0,.01-.16,0-.3.06-.42.16Z"/>
    <path class="cls-29" d="m156.29,148.79c.12-.1.26-.16.42-.16.06.02.12.03.18.06.22.09.33.26.41.47.06.17.1.34.07.52-.03.28-.11.55-.35.74-.15.12-.33.17-.51.11-.16-.05-.28-.17-.37-.31-.11-.17-.17-.36-.17-.56,0-.09,0-.19,0-.28.04-.21.13-.39.27-.55.01-.01.02-.03.04-.04Z"/>
    <path class="cls-4" d="m157.47,149.3c.1.19,0,.39.02.58h-.02v-.58Z"/>
    <path class="cls-22" d="m156.47,150.61h.45c-.15.07-.3.05-.45.02v-.02Z"/>
    <path class="cls-23" d="m156.95,150.59c.1-.09.2-.19.31-.28,0,0,.01.02.02.02-.1.09-.2.19-.3.28,0,0-.02-.02-.02-.03Z"/>
    <path class="cls-20" d="m157.05,148.64c.08.04.14.13.21.22-.08-.08-.15-.16-.21-.22Z"/>
    <path class="cls-23" d="m157.37,150.16s-.05.09-.07.13c-.01,0-.02-.01-.03-.02.03-.04.06-.08.1-.11,0,0,0,0,0,0Z"/>
    <path class="cls-20" d="m157.35,148.97l.05.09s-.02,0-.02.01c-.02-.03-.03-.06-.05-.09,0,0,.02-.01.02-.02Z"/>
    <path class="cls-20" d="m157.3,148.94s-.03-.03-.05-.04l.02-.02s.03.03.04.05c0,0,0,0-.01.01Z"/>
    <path class="cls-23" d="m157.37,150.16s.01-.02.02-.02c0,0,0,0,0,0,0,0-.02.01-.02.02,0,0,0,0,0,0Z"/>
    <path class="cls-14" d="m161.84,148.91s.07-.08.11-.11c.1-.11.22-.17.37-.15.29.01.54.23.62.52.05.17.07.33.06.5-.02.32-.14.6-.43.76-.19.1-.39.09-.58-.06-.19-.16-.29-.38-.33-.62-.06-.3.02-.58.19-.83Z"/>
    <path class="cls-12" d="m162.09,150.55h.46c-.04.08-.35.09-.46,0Z"/>
    <path class="cls-1" d="m161.55,149.81c-.05-.16-.08-.3-.02-.44,0,0,.01,0,.02,0v.44Z"/>
    <path class="cls-8" d="m163.1,149.78v-.46c.07.16.03.31,0,.46Z"/>
  </g>
</svg>